<?xml version="1.0" encoding="iso-8859-1"?>
<!-- Generator: Adobe Illustrator 19.0.0, SVG Export Plug-In . SVG Version: 6.00 Build 0)  -->
<svg xmlns="http://www.w3.org/2000/svg" xmlns:xlink="http://www.w3.org/1999/xlink" version="1.1" id="Layer_1" x="0px" y="0px" viewBox="0 0 512 512" style="enable-background:new 0 0 512 512;" xml:space="preserve" width="512" height="512">
<g id="XMLID_671_">
	<g id="XMLID_675_">
		<g id="XMLID_676_">
			<g id="XMLID_677_">
				<path id="XMLID_2604_" style="fill:#1685FB;" d="M494.405,61.143H17.595C7.878,61.143,0,69.02,0,78.738l0,354.524      c0,9.718,7.878,17.595,17.595,17.595h476.809c9.718,0,17.595-7.878,17.595-17.595V78.738      C512,69.02,504.122,61.143,494.405,61.143z"/>
				<path id="XMLID_2601_" style="fill:#4C60E1;" d="M512,433.258V78.741c0-9.725-7.881-17.596-17.596-17.596h-28.33      c9.715,0,17.596,7.871,17.596,17.596v354.516c0,9.725-7.881,17.596-17.596,17.596h28.33      C504.119,450.853,512,442.983,512,433.258z"/>
				<path id="XMLID_2598_" style="fill:#E3F4FF;" d="M512,137.338V78.741c0-9.725-7.881-17.596-17.596-17.596H17.596      C7.881,61.146,0,69.017,0,78.741l0,58.597H512z"/>
				<path id="XMLID_2595_" style="fill:#BDDFF4;" d="M512,137.338V78.741c0-9.725-7.881-17.596-17.596-17.596h-28.33      c9.715,0,17.596,7.871,17.596,17.596v58.597H512z"/>
			</g>
		</g>
		<g id="XMLID_678_">
			<g id="XMLID_683_">
				<path id="XMLID_684_" style="fill:#54DDAC;" d="M99.007,106.895H98.91c-4.267,0-7.726-3.459-7.726-7.726      s3.459-7.726,7.726-7.726c4.267,0,7.775,3.459,7.775,7.726S103.274,106.895,99.007,106.895z"/>
			</g>
			<g id="XMLID_685_">
				<path id="XMLID_686_" style="fill:#FDC142;" d="M73.692,106.969c-4.23,0-7.68-3.406-7.724-7.646      c-0.045-4.267,3.378-7.762,7.645-7.807c4.221-0.057,7.81,3.378,7.855,7.645c0.045,4.268-3.33,7.762-7.597,7.807l-0.097,0.001      C73.747,106.969,73.719,106.969,73.692,106.969z"/>
			</g>
			<g id="XMLID_687_">
				<path id="XMLID_688_" style="fill:#FC3E81;" d="M48.475,107.042c-4.23,0-7.681-3.406-7.724-7.646      c-0.044-4.268,3.379-7.763,7.646-7.807c0.027,0,0.055,0,0.081,0c4.231,0,7.729,3.406,7.773,7.646      c0.044,4.267-3.33,7.762-7.598,7.806l-0.097,0.001C48.53,107.042,48.502,107.042,48.475,107.042z"/>
			</g>
		</g>
		<g id="XMLID_689_">
			<path id="XMLID_692_" style="fill:#BDDFF4;" d="M172.845,107.042h-26.813c-4.267,0-7.726-3.459-7.726-7.726     s3.459-7.726,7.726-7.726h26.813c4.267,0,7.726,3.459,7.726,7.726S177.112,107.042,172.845,107.042z"/>
		</g>
	</g>
	<g id="XMLID_693_">
		<g id="XMLID_694_">
			<g id="XMLID_695_">
				<path id="XMLID_696_" style="fill:#FD9E28;" d="M166.301,247.388H159.6v-9.14c0-7.62-6.177-13.797-13.797-13.797      c-7.62,0-13.797,6.177-13.797,13.797v9.14H99.81l23.184-39.25c3.875-6.561,1.698-15.021-4.863-18.896      c-6.561-3.876-15.021-1.698-18.896,4.862l-35.478,60.064c-2.519,4.265-2.558,9.554-0.103,13.856      c2.456,4.302,7.029,6.958,11.983,6.958h56.37v41.58c0,7.62,6.177,13.797,13.797,13.797c7.62,0,13.797-6.177,13.797-13.797      v-41.58h6.701c7.62,0,13.797-6.177,13.797-13.797C180.098,253.565,173.921,247.388,166.301,247.388z"/>
			</g>
			<g id="XMLID_697_">
				<path id="XMLID_698_" style="fill:#FD9E28;" d="M436.363,247.388h-6.701v-9.14c0-7.62-6.177-13.797-13.797-13.797      s-13.797,6.177-13.797,13.797v9.14h-32.197l23.184-39.25c3.875-6.561,1.698-15.021-4.863-18.896      c-6.561-3.876-15.021-1.698-18.896,4.862l-35.478,60.064c-2.519,4.265-2.558,9.554-0.103,13.856      c2.456,4.302,7.029,6.958,11.983,6.958h56.37v41.58c0,7.62,6.177,13.797,13.797,13.797s13.797-6.177,13.797-13.797v-41.58h6.701      c7.62,0,13.797-6.177,13.797-13.797C450.16,253.565,443.983,247.388,436.363,247.388z"/>
			</g>
		</g>
		<g id="XMLID_699_">
			<path id="XMLID_700_" style="fill:#FD9E28;" d="M273.655,330.357h-35.309c-17.468,0-31.68-14.212-31.68-31.68v-79.676     c0-17.469,14.212-31.68,31.68-31.68h35.309c17.468,0,31.68,14.212,31.68,31.68v79.676     C305.335,316.146,291.123,330.357,273.655,330.357z M243.801,217.452c-3.862,0-7.005,3.143-7.005,7.005v68.764     c0,3.862,3.143,7.005,7.005,7.005h24.398c3.862,0,7.005-3.142,7.005-7.005v-68.764c0-3.862-3.143-7.005-7.005-7.005H243.801z"/>
		</g>
	</g>
	<g id="XMLID_703_">
		<g id="XMLID_704_">
			<path id="XMLID_707_" style="fill:#E3F4FF;" d="M372.577,418.45c-4.267,0-7.775-3.459-7.775-7.726     c0-4.268,3.41-7.726,7.677-7.726h0.098c4.267,0,7.726,3.459,7.726,7.726C380.303,414.991,376.844,418.45,372.577,418.45z"/>
		</g>
		<g id="XMLID_711_">
			<g id="XMLID_709_">
				<path id="XMLID_710_" style="fill:#E3F4FF;" d="M398.165,418.524c-4.267,0-7.776-3.459-7.776-7.726s3.41-7.726,7.678-7.726      h0.098c4.267,0,7.726,3.459,7.726,7.726S402.432,418.524,398.165,418.524z"/>
			</g>
		</g>
		<g id="XMLID_713_">
			<path id="XMLID_716_" style="fill:#E3F4FF;" d="M423.755,418.599c-0.027,0-0.054,0-0.081,0c-4.267-0.044-7.739-3.539-7.696-7.806     c0.044-4.24,3.446-7.648,7.676-7.648c0.027,0,0.054,0,0.081,0l0.098,0.001c4.267,0.044,7.69,3.538,7.646,7.806     C431.436,415.191,427.984,418.599,423.755,418.599z"/>
		</g>
	</g>
	<g id="XMLID_717_">
		<g id="XMLID_721_">
			<g id="XMLID_719_">
				<path id="XMLID_720_" style="fill:#E3F4FF;" d="M91.254,386.434H65.666c-4.267,0-7.726-3.459-7.726-7.726      s3.459-7.726,7.726-7.726h25.588c4.267,0,7.726,3.459,7.726,7.726S95.521,386.434,91.254,386.434z"/>
			</g>
		</g>
		<g id="XMLID_723_">
			<path id="XMLID_726_" style="fill:#E3F4FF;" d="M116.842,418.524H65.666c-4.267,0-7.726-3.459-7.726-7.726     s3.459-7.726,7.726-7.726h51.176c4.267,0,7.726,3.459,7.726,7.726S121.109,418.524,116.842,418.524z"/>
		</g>
	</g>
</g>















</svg>
