<?xml version="1.0" encoding="iso-8859-1"?>
<!-- Generator: Adobe Illustrator 19.0.0, SVG Export Plug-In . SVG Version: 6.00 Build 0)  -->
<svg version="1.1" id="Layer_1" xmlns="http://www.w3.org/2000/svg" xmlns:xlink="http://www.w3.org/1999/xlink" x="0px" y="0px"
	 viewBox="0 0 512.001 512.001" style="enable-background:new 0 0 512.001 512.001;" xml:space="preserve">
<path id="background_20_" style="fill:#334D5C;" d="M511.968,260.039c-2.23,141.366-118.639,254.159-260.004,251.93
	C110.596,509.738-2.197,393.332,0.032,251.966C2.263,110.596,118.671-2.197,260.038,0.033
	C401.405,2.264,514.198,118.673,511.968,260.039z"/>
<path style="fill:#EFC84A;" d="M193.569,204.001h-75.134v214h0.851c0,0-0.005-0.281-0.005-0.241
	c0,10.37,16.675,18.595,37.247,18.595c20.573,0,37.248-8.853,37.248-19.222C193.776,416.464,193.569,204.001,193.569,204.001z"/>
<path style="fill:#EFC84A;" d="M193.569,204.001h-75.134v214h0.851c0,0-0.005-0.281-0.005-0.241
	c0,10.37,16.675,18.595,37.247,18.595c20.573,0,37.248-8.853,37.248-19.222C193.776,416.464,193.569,204.001,193.569,204.001z"/>
<ellipse style="fill:#EFD47C;" cx="156.528" cy="204.832" rx="37.248" ry="18.779"/>
<path style="fill:#E05B49;" d="M292.897,95.001h-73.462v323h-0.821c0,0-0.007-0.281-0.007-0.241
	c0,10.37,16.677,18.595,37.249,18.595c20.571,0,37.248-8.226,37.248-18.596C293.104,417.092,292.897,95.001,292.897,95.001z"/>
<ellipse style="fill:#FF6853;" cx="255.855" cy="94.578" rx="37.249" ry="18.778"/>
<path style="fill:#45B39C;" d="M392.223,285.001h-73.788v133h-0.493c0,0-0.007-0.281-0.007-0.241
	c0,10.37,16.677,18.595,37.248,18.595c20.572,0,37.249-8.082,37.249-18.452C392.432,417.232,392.223,285.001,392.223,285.001z"/>
<ellipse style="fill:#51D1B6;" cx="355.184" cy="284.294" rx="37.249" ry="18.778"/>
<path style="opacity:0.2;fill:#5D5D5D;enable-background:new    ;" d="M119.281,204.001h-0.846v214h1c0,0,0-0.499,0-0.459
	c0,10.353,16,18.632,37,18.659V223.609C135.435,223.581,119.281,216.001,119.281,204.001z"/>
<path style="opacity:0.2;fill:#5D5D5D;enable-background:new    ;" d="M119.382,206.158c0.028,0.195,0.051,0.396,0.09,0.593
	c0.029,0.144,0.074,0.285,0.108,0.429c0.042,0.17,0.077,0.342,0.129,0.51c0.045,0.148,0.104,0.295,0.156,0.441
	c0.056,0.162,0.105,0.323,0.17,0.482c0.062,0.152,0.139,0.303,0.209,0.454c0.068,0.151,0.13,0.304,0.206,0.452
	c0.084,0.164,0.182,0.324,0.273,0.484c0.077,0.135,0.146,0.271,0.229,0.406c0.105,0.172,0.227,0.342,0.342,0.512
	c0.082,0.121,0.156,0.24,0.241,0.359c0.132,0.184,0.278,0.361,0.422,0.539c0.082,0.105,0.158,0.211,0.243,0.312
	c0.155,0.185,0.323,0.365,0.488,0.547c0.087,0.095,0.167,0.191,0.257,0.285c0.182,0.189,0.377,0.376,0.57,0.562
	c0.085,0.082,0.163,0.165,0.25,0.245c0.205,0.19,0.423,0.377,0.642,0.563c0.087,0.073,0.165,0.15,0.253,0.222
	c0.238,0.2,0.492,0.394,0.745,0.587c0.075,0.058,0.144,0.116,0.221,0.173c0.268,0.202,0.55,0.398,0.833,0.593
	c0.068,0.047,0.133,0.098,0.201,0.145c0.311,0.208,0.632,0.411,0.957,0.615c0.05,0.029,0.095,0.061,0.145,0.091
	c0.339,0.208,0.688,0.41,1.046,0.61c0.041,0.024,0.079,0.049,0.121,0.071c0.373,0.207,0.759,0.41,1.15,0.608
	c0.026,0.014,0.052,0.028,0.078,0.041c0.417,0.211,0.842,0.416,1.276,0.615c0.004,0.002,0.009,0.352,0.012,0.355
	c0.441,0.202,0.889,0.939,1.347,0.939h0.002c6.418,2,14.651,3.943,23.63,3.956l-6.925-37.391
	c-17.21,1.657-30.219,9.193-30.219,18.353c0,0.325,0.017,0.602,0.049,0.921C119.341,205.962,119.366,206.036,119.382,206.158z"/>
<g>
	<path style="opacity:0.2;fill:#5D5D5D;enable-background:new    ;" d="M317.942,418.001h0.183c-0.002-0.081-0.013-0.16-0.013-0.241
		C318.112,417.72,317.942,418.001,317.942,418.001z"/>
	<path style="opacity:0.2;fill:#5D5D5D;enable-background:new    ;" d="M318.415,284.596L318.435,418h-0.31
		c0.267,10.236,17.467,18.173,37.31,18.2V303.07C335.435,303.043,318.415,294.95,318.415,284.596z"/>
</g>
<path style="opacity:0.2;fill:#5D5D5D;enable-background:new    ;" d="M318.038,285.281c0.026,0.197,0.05,0.397,0.09,0.593
	c0.028,0.144,0.072,0.286,0.107,0.431c0.043,0.17,0.078,0.34,0.128,0.508c0.045,0.148,0.104,0.295,0.156,0.441
	c0.057,0.162,0.106,0.323,0.172,0.483c0.062,0.153,0.139,0.304,0.207,0.455c0.069,0.149,0.132,0.302,0.208,0.452
	c0.083,0.162,0.18,0.322,0.271,0.484c0.077,0.135,0.146,0.272,0.229,0.405c0.106,0.171,0.228,0.341,0.344,0.511
	c0.081,0.121,0.154,0.242,0.241,0.361c0.132,0.182,0.278,0.359,0.422,0.539c0.081,0.104,0.156,0.209,0.243,0.312
	c0.155,0.183,0.323,0.364,0.488,0.545c0.087,0.095,0.167,0.191,0.255,0.285c0.182,0.189,0.377,0.376,0.572,0.562
	c0.085,0.082,0.161,0.165,0.248,0.245c0.206,0.192,0.425,0.378,0.643,0.566c0.085,0.073,0.165,0.148,0.251,0.221
	c0.24,0.199,0.492,0.393,0.745,0.588c0.075,0.057,0.146,0.116,0.221,0.173c0.27,0.2,0.551,0.397,0.835,0.592
	c0.067,0.048,0.131,0.097,0.201,0.144c0.309,0.208,0.63,0.413,0.957,0.615c0.048,0.029,0.095,0.06,0.145,0.093
	c0.339,0.206,0.689,0.409,1.044,0.608c0.041,0.023,0.081,0.049,0.123,0.071c0.373,0.208,0.758,0.41,1.148,0.608
	c0.028,0.016,0.053,0.028,0.08,0.042c0.415,0.212,0.84,0.417,1.274,0.614c0.005,0.004,0.009,0.006,0.014,0.008
	c0.439,0.201,0.889,0.398,1.347,0.59l0,0c6.42,2.678,14.651,4.293,23.632,4.305l-6.925-37.217
	c-17.211,1.658-30.221,9.281-30.221,18.439c0,0.324,0.017,0.646,0.049,0.965C317.997,285.043,318.022,285.16,318.038,285.281z"/>
<path style="opacity:0.2;fill:#5D5D5D;enable-background:new    ;" d="M218.607,95.001h-0.018l0.846,109.831v213.169h-0.821
	c0,0-0.007-0.281-0.007-0.241c0,3.24,1.631,6.136,4.495,8.79c0.009,0.008,0.019-0.06,0.025-0.055c0.28,0.26,0.569,0.477,0.873,0.727
	c0.007,0.008,0.017-0.005,0.025,0.001c0.303,0.252,0.616,0.488,0.941,0.73c0.026,0.02,0.054,0.033,0.08,0.052
	c0.31,0.229,0.628,0.455,0.958,0.676c0.039,0.024,0.08,0.048,0.119,0.073c0.319,0.215,0.647,0.425,0.986,0.631
	c0.053,0.033,0.111,0.064,0.166,0.097c0.327,0.197,0.659,0.393,1.002,0.582c0.07,0.039,0.144,0.074,0.212,0.112
	c0.335,0.182,0.672,0.363,1.02,0.538c0.089,0.043,0.181,0.086,0.269,0.129c0.337,0.166,0.675,0.332,1.023,0.49
	c0.106,0.049,0.219,0.095,0.326,0.143c0.337,0.152,0.676,0.302,1.023,0.447c0.119,0.048,0.242,0.093,0.36,0.141
	c0.345,0.141,0.69,0.281,1.045,0.414c0.139,0.052,0.283,0.1,0.424,0.152c0.341,0.125,0.683,0.251,1.034,0.369
	c0.154,0.054,0.314,0.1,0.469,0.152c0.345,0.113,0.687,0.227,1.038,0.334c0.179,0.056,0.363,0.105,0.544,0.157
	c0.336,0.101,0.672,0.2,1.015,0.294c0.193,0.053,0.392,0.102,0.587,0.15c0.336,0.091,0.673,0.181,1.017,0.262
	c0.21,0.053,0.427,0.1,0.64,0.147c0.334,0.078,0.667,0.157,1.007,0.23c0.227,0.047,0.458,0.09,0.689,0.137
	c0.332,0.066,0.663,0.135,1,0.199c0.238,0.043,0.483,0.081,0.725,0.123c0.334,0.059,0.665,0.118,1.004,0.17
	c0.248,0.039,0.501,0.073,0.751,0.107c0.337,0.051,0.672,0.101,1.014,0.146c0.26,0.035,0.525,0.061,0.788,0.092
	c0.337,0.04,0.67,0.083,1.01,0.118c0.27,0.028,0.546,0.051,0.818,0.075c0.337,0.03,0.674,0.064,1.014,0.09
	c0.278,0.022,0.561,0.036,0.84,0.056c0.34,0.021,0.679,0.048,1.021,0.064c0.285,0.016,0.577,0.023,0.863,0.033
	c0.342,0.016,0.682,0.03,1.025,0.04c0.292,0.009,0.428,0.009,0.721,0.012c0.328,0.005,0.822,0.013,0.822,0.013V113.355
	C234.435,113.326,218.607,106.001,218.607,95.001z"/>
<path style="opacity:0.2;fill:#5D5D5D;enable-background:new    ;" d="M218.71,95.564c0.027,0.198,0.05,0.396,0.09,0.594
	c0.028,0.143,0.072,0.286,0.108,0.43c0.042,0.17,0.077,0.34,0.127,0.508c0.045,0.149,0.104,0.296,0.157,0.443
	c0.057,0.161,0.107,0.323,0.171,0.483c0.062,0.153,0.139,0.303,0.209,0.455c0.067,0.149,0.13,0.301,0.206,0.451
	c0.084,0.164,0.182,0.323,0.271,0.485c0.077,0.135,0.147,0.271,0.23,0.406c0.104,0.171,0.227,0.342,0.342,0.512
	c0.081,0.118,0.154,0.241,0.241,0.359c0.132,0.182,0.278,0.36,0.422,0.54c0.082,0.104,0.157,0.208,0.243,0.312
	c0.155,0.184,0.323,0.365,0.488,0.545c0.087,0.096,0.167,0.192,0.257,0.285c0.18,0.19,0.377,0.377,0.57,0.563
	c0.085,0.082,0.163,0.165,0.25,0.245c0.205,0.191,0.423,0.378,0.642,0.565c0.085,0.074,0.165,0.148,0.253,0.222
	c0.238,0.198,0.492,0.393,0.745,0.586c0.075,0.057,0.144,0.117,0.22,0.174c0.268,0.201,0.551,0.396,0.834,0.592
	c0.068,0.048,0.132,0.096,0.201,0.143c0.311,0.209,0.63,0.414,0.957,0.615c0.048,0.03,0.095,0.062,0.145,0.094
	c0.339,0.206,0.688,0.41,1.045,0.61c0.042,0.023,0.08,0.047,0.122,0.07c0.373,0.208,0.758,0.41,1.15,0.609
	c0.026,0.014,0.051,0.028,0.078,0.042c0.415,0.21,0.842,0.415,1.274,0.615c0.005,0.002,0.009,0.003,0.014,0.005
	c0.44,0.202,0.889,0.398,1.347,0.59l0,0c6.42,2.678,14.651,4.294,23.632,4.304L248.827,75.8c-17.21,1.658-30.221,9.281-30.221,18.44
	c0,0.323,0.018,0.645,0.051,0.966C218.669,95.326,218.694,95.444,218.71,95.564z"/>
<g>
</g>
<g>
</g>
<g>
</g>
<g>
</g>
<g>
</g>
<g>
</g>
<g>
</g>
<g>
</g>
<g>
</g>
<g>
</g>
<g>
</g>
<g>
</g>
<g>
</g>
<g>
</g>
<g>
</g>
</svg>
