<?xml version="1.0" encoding="iso-8859-1"?>
<!-- Generator: Adobe Illustrator 19.0.0, SVG Export Plug-In . SVG Version: 6.00 Build 0)  -->
<svg version="1.1" id="Layer_1" xmlns="http://www.w3.org/2000/svg" xmlns:xlink="http://www.w3.org/1999/xlink" x="0px" y="0px"
	 viewBox="0 0 512 512" style="enable-background:new 0 0 512 512;" xml:space="preserve">
<circle id="background_18_" style="fill:#EFC84A;" cx="256" cy="256" r="256"/>
<path style="fill:#D8DBDB;" d="M396.695,401.922l-2.237-274.615c-0.053-6.566-4.277-11.906-10.843-11.853l-254.554,2.075
	l266.177,290.186C396.181,405.99,396.713,404.017,396.695,401.922z"/>
<path style="fill:#BDBFBF;" d="M129.061,117.529l-1.754,0.013c-6.567,0.054-11.896,5.47-11.842,12.038l2.237,274.615
	c0.053,6.566,5.47,11.897,12.038,11.843l255.114-2.078c4.475-0.036,8.371-2.564,10.385-6.245L129.061,117.529z"/>
<path style="fill:#ECF0F0;" d="M396.538,382.42c0.053,6.568-5.277,11.984-11.843,12.038l-255.115,2.079
	c-6.567,0.053-11.983-5.277-12.037-11.844l-2.238-274.615c-0.054-6.568,5.275-11.984,11.843-12.038l256.308-2.089
	c6.566-0.053,10.79,5.287,10.843,11.854L396.538,382.42z"/>
<path style="fill:#D8DBDB;" d="M116.821,104.184c-0.979,1.748-1.533,3.76-1.515,5.895l2.238,274.615
	c0.053,6.566,5.47,11.896,12.037,11.844l253.511-2.065L116.821,104.184z"/>
<path style="fill:#ABADAD;" d="M149.547,209.303c-8.777,0.072-15.977-7.012-16.049-15.789l-0.503-61.689
	c-0.071-8.778,7.012-15.978,15.79-16.05l212.131-1.729c8.778-0.072,15.978,7.012,16.05,15.79l0.501,61.69
	c0.074,8.775-7.011,15.977-15.789,16.048L149.547,209.303z"/>
<path style="fill:#283C47;" d="M373.488,191.559c0.054,6.566-5.275,11.982-11.841,12.037l-212.131,1.727
	c-6.567,0.054-11.983-5.274-12.037-11.841l-0.503-61.691c-0.053-6.567,5.276-11.983,11.843-12.037l212.13-1.728
	c6.566-0.054,11.985,5.275,12.038,11.843L373.488,191.559z"/>
<path style="fill:#334D5C;" d="M149.45,197.364c-2.157,0.019-3.995-1.79-4.012-3.947l-0.502-61.689
	c-0.018-2.156,1.79-3.994,3.947-4.012l212.131-1.728c2.157-0.018,3.993,1.791,4.012,3.947l0.502,61.689
	c0.018,2.156-1.79,3.995-3.946,4.012L149.45,197.364z"/>
<path style="fill:#ECF0F0;" d="M243.123,158.514l-0.106-13.039l6.519-0.052l0.106,13.038L243.123,158.514z M243.283,178.073
	l-0.106-13.039l6.52-0.053l0.106,13.038L243.283,178.073z M249.536,145.422l-0.053-6.52l19.559-0.159l0.052,6.518L249.536,145.422z
	 M249.696,164.981l-0.053-6.52l19.559-0.158l0.053,6.519L249.696,164.981z M249.855,184.54l-0.053-6.521l19.559-0.159l0.053,6.521
	L249.855,184.54z M269.201,158.302l-0.107-13.04l6.52-0.053l0.107,13.039L269.201,158.302z M269.361,177.86l-0.106-13.039
	l6.52-0.054l0.106,13.04L269.361,177.86z"/>
<path style="fill:#ECF0F0;" d="M282.241,158.196l-0.106-13.039l6.52-0.052l0.106,13.038L282.241,158.196z M282.4,177.755
	l-0.106-13.04l6.52-0.053l0.106,13.038L282.4,177.755z M288.655,145.104l-0.053-6.52l19.558-0.16l0.053,6.519L288.655,145.104z
	 M288.814,164.662l-0.053-6.52l19.557-0.159l0.054,6.519L288.814,164.662z M288.973,184.221l-0.053-6.521l19.558-0.159l0.053,6.521
	L288.973,184.221z M308.318,157.983l-0.105-13.039l6.519-0.053l0.106,13.039L308.318,157.983z M308.478,177.541l-0.107-13.039
	l6.52-0.054l0.107,13.041L308.478,177.541z"/>
<path style="fill:#ECF0F0;" d="M321.358,157.877l-0.106-13.04l6.52-0.054l0.107,13.04L321.358,157.877z M321.518,177.436
	l-0.106-13.042l6.52-0.051l0.106,13.038L321.518,177.436z M327.771,144.783l-0.053-6.518l19.558-0.16l0.053,6.519L327.771,144.783z
	 M327.931,164.344l-0.054-6.521l19.559-0.159l0.052,6.52L327.931,164.344z M328.09,183.903l-0.052-6.521l19.557-0.16l0.053,6.521
	L328.09,183.903z M347.436,157.664l-0.107-13.039l6.52-0.053l0.105,13.037L347.436,157.664z M347.595,177.222l-0.107-13.038
	l6.52-0.054l0.107,13.038L347.595,177.222z"/>
<path style="opacity:0.3;fill:#5D5D5D;enable-background:new    ;" d="M230.679,127.049l-46.375,0.378l-35.421,0.288
	c-2.158,0.018-3.965,1.856-3.947,4.012l0.502,61.689c0.017,2.157,1.855,3.966,4.012,3.947l35.421-0.288l109.225-0.89
	L230.679,127.049z"/>
<rect x="142.608" y="299.835" transform="matrix(-1 0.0081 -0.0081 -1 359.9718 670.2542)" style="fill:#BF6934;" width="72.041" height="72.041"/>
<rect x="141.96" y="219.837" transform="matrix(-1 0.0081 -0.0081 -1 358.0273 510.2648)" style="fill:#BF6934;" width="72.041" height="72.041"/>
<rect x="221.959" y="219.187" transform="matrix(-1 0.0081 -0.0081 -1 518.0199 508.3181)" style="fill:#BF6934;" width="72.042" height="72.041"/>
<rect x="222.612" y="299.184" transform="matrix(-1 0.0081 -0.0081 -1 519.9736 668.3034)" style="fill:#BF6934;" width="72.042" height="72.04"/>
<rect x="142.56" y="299.835" transform="matrix(-1 0.0081 -0.0081 -1 359.8289 658.3143)" style="fill:#E27C3E;" width="72.042" height="60.101"/>
<rect x="141.915" y="219.835" transform="matrix(-1 0.0081 -0.0081 -1 357.8905 498.3208)" style="fill:#E27C3E;" width="72.041" height="60.1"/>
<rect x="221.933" y="219.165" transform="matrix(-1 0.0082 -0.0082 -1 517.9432 496.3081)" style="fill:#E27C3E;" width="72.041" height="60.102"/>
<rect x="222.56" y="299.188" transform="matrix(-1 0.0081 -0.0081 -1 519.8206 656.3718)" style="fill:#E27C3E;" width="72.042" height="60.101"/>
<path style="fill:#3D9E8A;" d="M313.608,218.713c-6.566,0.054-11.895,5.471-11.841,12.037l1.045,128.154
	c0.053,6.567,5.47,11.896,12.037,11.844l48.157-0.392c6.566-0.055,11.896-5.471,11.843-12.037l-1.045-128.155
	c-0.054-6.566-5.47-11.895-12.037-11.841L313.608,218.713z"/>
<path style="fill:#45B39C;" d="M313.963,218.71c-6.762,0.057-12.248,5.634-12.195,12.395l0.943,115.504
	c0.053,6.764,5.632,12.25,12.393,12.195l47.449-0.387c6.761-0.055,12.248-5.631,12.195-12.395l-0.942-115.505
	c-0.055-6.762-5.631-12.25-12.395-12.193L313.963,218.71z"/>
<path style="fill:#ECF0F0;" d="M366.438,303.065c0.027,3.516-2.8,6.389-6.315,6.417l-42.191,0.343
	c-3.517,0.029-6.39-2.798-6.417-6.312l-0.057-6.772c-0.028-3.516,2.798-6.389,6.314-6.417l42.193-0.343
	c3.515-0.029,6.388,2.798,6.417,6.312L366.438,303.065z"/>
<path style="fill:#ECF0F0;" d="M366.148,267.643c0.03,3.516-2.798,6.389-6.314,6.418l-42.193,0.343
	c-3.514,0.028-6.387-2.797-6.417-6.314l-0.055-6.771c-0.028-3.516,2.798-6.389,6.315-6.416l42.19-0.344
	c3.517-0.029,6.39,2.798,6.418,6.312L366.148,267.643z"/>
<path style="fill:#ECF0F0;" d="M192.961,240.393l-8.532,0.07l-0.067-8.298c-0.02-2.524-1.904-4.422-4.429-4.401l-4.735,0.038
	c-2.526,0.02-4.787,1.952-4.767,4.477l0.068,8.298l-8.124,0.066c-2.525,0.02-4.596,2.139-4.575,4.664l0.038,4.734
	c0.021,2.527,2.125,4.553,4.65,4.532l8.124-0.066l0.067,8.356c0.021,2.527,2.316,4.758,4.842,4.738l4.735-0.038
	c2.525-0.022,4.374-2.288,4.354-4.813l-0.067-8.357l8.531-0.069c2.527-0.02,4.585-2.08,4.564-4.604l-0.039-4.735
	C197.58,242.457,195.487,240.373,192.961,240.393z"/>
<path style="fill:#ECF0F0;" d="M278.297,330.234c0.021,2.536-2.019,4.608-4.554,4.63l-30.616,0.248
	c-2.536,0.021-4.608-2.018-4.629-4.555l-0.038-4.745c-0.021-2.536,2.018-4.608,4.554-4.63l30.616-0.248
	c2.536-0.022,4.608,2.018,4.629,4.555L278.297,330.234z"/>
<path style="fill:#ECF0F0;" d="M278.297,330.234c0.021,2.536-2.019,4.608-4.554,4.63l-30.616,0.248
	c-2.536,0.021-4.608-2.018-4.629-4.555l-0.038-4.745c-0.021-2.536,2.018-4.608,4.554-4.63l30.616-0.248
	c2.536-0.022,4.608,2.018,4.629,4.555L278.297,330.234z"/>
<circle style="fill:#ECF0F0;" cx="258.155" cy="313.094" r="5.965"/>
<circle style="fill:#ECF0F0;" cx="258.398" cy="342.921" r="5.966"/>
<path style="fill:#ECF0F0;" d="M198.698,330.865c0.021,2.536-2.019,4.625-4.554,4.647l-30.615,0.248
	c-2.537,0.021-4.609-2.033-4.63-4.57l-0.038-4.744c-0.021-2.537,2.018-4.594,4.555-4.615l30.614-0.248
	c2.537-0.022,4.609,2.003,4.63,4.537L198.698,330.865z"/>
<path style="fill:#ECF0F0;" d="M267.761,246.948l5.844-5.94c1.771-1.799,1.747-4.723-0.054-6.494l-3.376-3.32
	c-1.8-1.771-4.723-1.746-6.494,0.053l-5.844,5.94l-5.94-5.845c-1.801-1.77-4.723-1.746-6.495,0.053l-3.32,3.375
	c-1.772,1.803-1.747,4.724,0.052,6.494l5.94,5.845l-5.844,5.941c-1.77,1.8-1.747,4.722,0.054,6.493l3.375,3.322
	c1.801,1.77,4.722,1.746,6.495-0.054l5.844-5.94l5.94,5.844c1.801,1.772,4.723,1.748,6.494-0.053l3.321-3.375
	c1.771-1.801,1.747-4.724-0.052-6.494L267.761,246.948z"/>
<g>
</g>
<g>
</g>
<g>
</g>
<g>
</g>
<g>
</g>
<g>
</g>
<g>
</g>
<g>
</g>
<g>
</g>
<g>
</g>
<g>
</g>
<g>
</g>
<g>
</g>
<g>
</g>
<g>
</g>
</svg>
