<?xml version="1.0" encoding="iso-8859-1"?>
<!-- Generator: Adobe Illustrator 19.0.0, SVG Export Plug-In . SVG Version: 6.00 Build 0)  -->
<svg version="1.1" id="Layer_1" xmlns="http://www.w3.org/2000/svg" xmlns:xlink="http://www.w3.org/1999/xlink" x="0px" y="0px"
	 viewBox="0 0 512 512" style="enable-background:new 0 0 512 512;" xml:space="preserve">
<circle id="background_3_" style="fill:#ECF0F0;" cx="256" cy="256" r="256"/>
<path style="fill:#334D5C;" d="M221.866,114h181.828c20.409,0,35.74,17.263,35.74,37.672v98.954
	c0,20.409-15.331,39.374-35.74,39.374h-31.26v50.922c0,6.803-2.592,9.079-6.719,3.672L323.941,290H221.866
	c-20.409,0-38.432-18.965-38.432-39.374v-98.954C183.435,131.263,201.457,114,221.866,114z"/>
<path style="opacity:0.3;fill:#5D5D5D;enable-background:new    ;" d="M183.435,172v78.626c0,20.409,18.022,39.374,38.432,39.374
	h102.074l41.775,54.594c4.127,5.407,6.719,3.131,6.719-3.672V290h31.26c5.709,0,11.125-2.232,15.967-4.613L307.16,172H183.435z"/>
<path style="fill:#E27C3E;" d="M291.623,165H109.795c-20.408,0-37.36,16.926-37.36,37.335v98.954
	c0,20.41,16.952,37.711,37.36,37.711h29.64v52.585c0,6.803,3.402,8.248,7.53,2.841L189.55,339h102.073
	c20.41,0,36.811-17.301,36.811-37.711v-98.954C328.435,181.926,312.033,165,291.623,165z"/>
<path style="fill:#FFFFFF;" d="M127.435,213c47,0,95.9,0,143.522,0c0.758,0,1.478,0,1.478,0c3,0,3-9,0-9c-48,0-94.451,0-142.071,0
	c-0.757,0-2.929,0-2.929,0C121.435,204,121.435,213,127.435,213z"/>
<path style="fill:#FFFFFF;" d="M272.435,244c-48,0-94.451,0-142.071,0c-0.757,0-2.929,0-2.929,0c-6,0-6,10,0,10
	c47,0,95.9,0,143.522,0c0.758,0,1.478,0,1.478,0C275.435,254,275.435,244,272.435,244z"/>
<path style="fill:#FFFFFF;" d="M272.435,290c-48,0-94.451,0-142.071,0c-0.757,0-2.929,0-2.929,0c-6,0-6,10,0,10
	c47,0,95.9,0,143.522,0c0.758,0,1.478,0,1.478,0C275.435,300,275.435,290,272.435,290z"/>
<path style="opacity:0.3;fill:#5D5D5D;enable-background:new    ;" d="M72.435,202.335v98.954c0,20.41,16.952,37.711,37.36,37.711
	h29.64v52.585c0,6.803,3.402,8.248,7.53,2.841L189.55,339h92.28L107.425,164.668C88.044,165.88,72.435,182.675,72.435,202.335z"/>
<g>
</g>
<g>
</g>
<g>
</g>
<g>
</g>
<g>
</g>
<g>
</g>
<g>
</g>
<g>
</g>
<g>
</g>
<g>
</g>
<g>
</g>
<g>
</g>
<g>
</g>
<g>
</g>
<g>
</g>
</svg>
