<?xml version="1.0" encoding="iso-8859-1"?>
<!-- Generator: Adobe Illustrator 19.0.0, SVG Export Plug-In . SVG Version: 6.00 Build 0)  -->
<svg version="1.1" id="Layer_1" xmlns="http://www.w3.org/2000/svg" xmlns:xlink="http://www.w3.org/1999/xlink" x="0px" y="0px"
	 viewBox="0 0 512.001 512.001" style="enable-background:new 0 0 512.001 512.001;" xml:space="preserve">
<path id="background_17_" style="fill:#E05B49;" d="M511.991,253.87c1.177,141.38-112.481,256.944-253.861,258.122
	C116.75,513.169,1.186,399.51,0.009,258.13C-1.142,119.789,109.855,1.207,253.869,0.009
	C395.249-1.166,510.816,112.49,511.991,253.87z"/>
<path style="fill:#CED1D1;" d="M429.123,6.344L154.349,8.629L110.35,53.995l-68.69,70.822l-12.964,13.367l0.072,8.731l1.992,230.822
	c43.663,80.622,129.297,135.07,227.369,134.255c99.207-0.826,184.755-57.977,226.564-140.841l-1.948-234.089l-0.716-77.755
	C481.789,30.449,457.982,6.102,429.123,6.344z"/>
<polygon style="fill:#ECF0F0;" points="334.558,172.682 182.489,173.947 335.823,324.559 "/>
<polygon style="fill:#CBCFCF;" points="182.489,173.947 170.723,174.045 172.044,332.76 335.879,331.396 335.823,324.559 "/>
<polygon style="fill:#B4B8B8;" points="155.216,112.972 281.703,7.569 154.349,8.629 98.809,136.74 "/>
<path style="fill:#FBFFFF;" d="M131.83,136.821c12.973-0.108,23.066-10.301,22.96-23.271L153.926,9.778L28.059,137.684
	L131.83,136.821z"/>
<path style="fill:#334D5C;" d="M365.226,166.246c-0.095-11.314-9.987-21.043-21.302-20.949
	c-59.225,0.493-118.452,0.984-177.678,1.479c-11.315,0.094-21.267,9.988-21.173,21.303c0.493,59.227,0.987,118.451,1.479,177.677
	c0.095,11.315,10.211,21.266,21.526,21.172c59.225-0.491,118.593-0.988,178.325-1.484c7.633-0.064,12.942-3.917,15.977-9.268
	c2.687-3.293,4.363-7.646,4.316-13.089C366.214,285.063,365.719,225.473,365.226,166.246z M323.861,322.963
	c-45.098,0.376-90.012,0.748-134.821,1.122c-0.374-44.941-0.749-89.879-1.122-134.821c44.942-0.375,89.882-0.748,134.822-1.123
	C323.116,233.291,323.491,278.514,323.861,322.963z"/>
<path style="fill:#263A45;" d="M323.528,282.859c0.111,13.417,0.221,26.801,0.333,40.104c-45.098,0.376-90.012,0.748-134.821,1.122
	c-0.374-44.941-0.749-89.879-1.122-134.821c13.369-0.111,26.737-0.223,40.105-0.336l-43.02-42.308
	c-6.253,0.051-12.505,0.104-18.756,0.156c-11.315,0.094-21.267,9.988-21.173,21.303c0.493,59.227,0.987,118.451,1.479,177.677
	c0.095,11.315,10.211,21.266,21.526,21.172c59.225-0.491,118.593-0.988,178.325-1.484c7.633-0.064,12.942-3.917,15.977-9.268
	c2.687-3.293,4.363-7.646,4.316-13.089c-0.05-5.953-0.098-11.933-0.148-17.918L323.528,282.859z"/>
<path style="fill:#E05B49;" d="M436.326,133.92c0.067-0.056,0.133-0.115,0.198-0.174c8.49-7.489,7.392-21.843-0.245-29.354
	c-8.49-8.35-20.877-7.234-29.353,0.244c-41.407,36.531-82.813,72.878-124.222,109.298l29.758,29.268
	C353.751,206.775,395.039,170.349,436.326,133.92z"/>
<path style="fill:#C75141;" d="M282.704,213.934c-10.948,9.63-21.9,19.264-32.848,28.913c-14.606-16.595-29.22-34.329-43.83-51.345
	c-7.376-8.592-21.921-7.116-29.352,0.441c-8.432,8.57-7.118,20.973,0.245,29.55c18.832,21.934,37.663,43.866,56.493,65.799
	c7.743,9.02,21.44,6.739,29.354-0.243c16.566-14.614,33.133-29.231,49.696-43.848L282.704,213.934z M233.363,257.374
	c-0.067,0.056-0.137-0.219-0.202-0.219c0.151-0.001,0.301-0.001,0.453-0.001C233.529,257.225,233.446,257.3,233.363,257.374z"/>
<g>
</g>
<g>
</g>
<g>
</g>
<g>
</g>
<g>
</g>
<g>
</g>
<g>
</g>
<g>
</g>
<g>
</g>
<g>
</g>
<g>
</g>
<g>
</g>
<g>
</g>
<g>
</g>
<g>
</g>
</svg>
