<?xml version="1.0" encoding="iso-8859-1"?>
<!-- Generator: Adobe Illustrator 19.0.0, SVG Export Plug-In . SVG Version: 6.00 Build 0)  -->
<svg version="1.1" id="Layer_1" xmlns="http://www.w3.org/2000/svg" xmlns:xlink="http://www.w3.org/1999/xlink" x="0px" y="0px"
	 viewBox="0 0 512 512" style="enable-background:new 0 0 512 512;" xml:space="preserve">
<circle id="bCKGROUND" style="fill:#E27C3E;" cx="256" cy="256" r="256"/>
<path style="fill:#45B39C;" d="M312.613,387c-5.481,0-10.179-5.122-10.179-10.603V236.458c0-5.483-4.273-9.458-9.754-9.458h-73.358
	c-5.483,0-9.887,3.975-9.887,9.458v139.939c0,5.481-4.566,10.603-10.048,10.603h-24.289c-5.481,0-6.636,2.685-2.565,6.355
	l76.065,68.423c4.072,3.672,10.733,3.592,14.805-0.08l76.063-68.302c4.071-3.67,2.917-6.397-2.565-6.397L312.613,387L312.613,387z"
	/>
<path style="opacity:0.3;fill:#45B39C;enable-background:new    ;" d="M292.68,227h-73.358c-5.483,0-9.887,3.975-9.887,9.458v44.082
	l93-0.094v-43.988C302.435,230.975,298.162,227,292.68,227z"/>
<path style="opacity:0.3;fill:#45B39C;enable-background:new    ;" d="M208.65,302.597l84.053,132.58l-29.3,26.522
	c-4.072,3.672-10.733,3.752-14.805,0.08l-76.065-68.423c-4.071-3.67-2.917-6.355,2.565-6.355h24.289c5.481,0,9.26-4.758,9.26-10.239
	L208.65,302.597z"/>
<path style="fill:#E3E8E8;" d="M389.435,128.075c0-0.02,0-0.04,0-0.061c0-57.087-46.625-103.365-103.711-103.365
	c-39.307,0-73.662,21.941-91.14,54.243c-3.989-0.661-8.168-1.01-12.345-1.01c-36.39,0-66.724,26.088-73.249,60.583
	c-30.313,4.693-53.54,30.765-53.54,62.392c0,34.947,28.313,63.144,63.262,63.144c0.03,0,0.058,0,0.087,0l-0.09,0.373l243.503-0.172
	c39.033,0,71.018-31.609,71.018-70.64C433.229,163.915,413.435,138.566,389.435,128.075z"/>
<path style="fill:#F5FAFA;" d="M410.435,184.142c0-0.012,0-0.025,0-0.035c0-33.666-27.227-60.958-60.892-60.958
	c-23.182,0-43.305,12.94-53.613,31.988c-2.353-0.389-4.749-0.595-7.215-0.595c-21.458,0-39.314,15.385-43.161,35.727
	c-17.876,2.767-31.555,17.993-31.555,36.645c0,20.609,16.714,37.087,37.322,37.087c0.018,0,0.033,0,0.052,0l-0.054,0.369
	l143.598-0.027c23.017,0,41.612-18.604,41.612-41.621C436.53,205.238,425.435,190.328,410.435,184.142z"/>
<g>
</g>
<g>
</g>
<g>
</g>
<g>
</g>
<g>
</g>
<g>
</g>
<g>
</g>
<g>
</g>
<g>
</g>
<g>
</g>
<g>
</g>
<g>
</g>
<g>
</g>
<g>
</g>
<g>
</g>
</svg>
