<?xml version="1.0" encoding="iso-8859-1"?>
<!-- Generator: Adobe Illustrator 19.0.0, SVG Export Plug-In . SVG Version: 6.00 Build 0)  -->
<svg version="1.1" id="Layer_1" xmlns="http://www.w3.org/2000/svg" xmlns:xlink="http://www.w3.org/1999/xlink" x="0px" y="0px"
	 viewBox="0 0 512 512" style="enable-background:new 0 0 512 512;" xml:space="preserve">
<circle id="ackground" style="fill:#EFC84A;" cx="256" cy="256" r="256"/>
<path style="fill:#45B39C;" d="M414.222,187.89c-0.73-0.75-1.535-1.421-2.403-2.012L256,55.412L97.778,187.89
	c-0.162,0.167-0.137,0.159,0.04,0.028L256,297.275L414.222,187.89z"/>
<path style="fill:#D3D6D6;" d="M160.685,368h192.242C368.783,368,381,354.9,381,339.043v-231.55C381,91.637,368.783,78,352.927,78
	H201.952L132,148.759v190.284C132,354.9,144.828,368,160.685,368z"/>
<polygon style="fill:#C1C4C4;" points="201.952,135.41 271.927,78 201.952,78 170.85,148.17 "/>
<path style="fill:#FBFFFF;" d="M188.992,148c7.128,0,13.008-5.073,13.008-12.2V78.783L131.975,148H188.992z"/>
<path style="fill:#2E2E2E;" d="M333,271c0,0-41.612,0-62.763,0c-28.165,0-56.329,0-84.494,0c-1.94,0-4.743,0-5.743,0c-6,0-6,9,0,9
	c20,0,42.223,0,63.375,0c28.163,0,56.328,0,84.493,0c1.94,0,3.132,0,5.132,0C338,280,338,271,333,271C333,271,338,271,333,271z"/>
<path style="fill:#2E2E2E;" d="M333,237c0,0-41.612,0-62.763,0c-28.165,0-56.329,0-84.494,0c-1.94,0-4.743,0-5.743,0c-6,0-6,8,0,8
	c20,0,42.223,0,63.375,0c28.163,0,56.328,0,84.493,0c1.94,0,3.132,0,5.132,0C338,245,338,237,333,237C333,237,338,237,333,237z"/>
<path style="fill:#2E2E2E;" d="M333,203c0,0-41.612,0-62.763,0c-28.165,0-56.329,0-84.494,0c-1.94,0-4.743,0-5.743,0c-6,0-6,8,0,8
	c20,0,42.223,0,63.375,0c28.163,0,56.328,0,84.493,0c1.94,0,3.132,0,5.132,0C338,211,338,203,333,203C333,203,338,203,333,203z"/>
<path style="fill:#2E2E2E;" d="M333,169c0,0-41.612,0-62.763,0c-28.165,0-56.329,0-84.494,0c-1.94,0-4.743,0-5.743,0c-6,0-6,8,0,8
	c20,0,42.223,0,63.375,0c28.163,0,56.328,0,84.493,0c1.94,0,3.132,0,5.132,0C338,177,338,169,333,169C333,169,338,169,333,169z"/>
<path style="fill:#3D9E89;" d="M418,198.533c0-4.128-1.377-7.885-4.061-10.644l-158.08,109.386l160.184,110.888
	c1.375-2.293,1.957-4.969,1.957-7.823V198.533z"/>
<path style="fill:#40A690;" d="M256,297.275L97.778,187.89c-1.005,1.033-1.867,2.209-2.552,3.488
	c-0.004,0.007-0.005,0.012-0.008,0.018c-0.11,0.206-0.217,0.416-0.318,0.631c-0.006,0.014-0.013,0.028-0.02,0.045
	c-0.097,0.204-0.188,0.409-0.275,0.617c-0.012,0.026-0.021,0.053-0.032,0.078c-0.081,0.2-0.16,0.4-0.233,0.602
	c-0.015,0.038-0.026,0.078-0.04,0.118c-0.068,0.191-0.133,0.384-0.193,0.578c-0.018,0.055-0.031,0.113-0.048,0.17
	c-0.053,0.178-0.105,0.358-0.151,0.542c-0.02,0.074-0.035,0.147-0.052,0.222c-0.04,0.167-0.082,0.334-0.115,0.502
	c-0.02,0.094-0.034,0.189-0.052,0.281c-0.028,0.153-0.057,0.306-0.08,0.459c-0.019,0.118-0.03,0.238-0.047,0.357
	c-0.017,0.131-0.037,0.263-0.05,0.396c-0.015,0.152-0.023,0.307-0.035,0.459c-0.006,0.103-0.736,0.203-0.741,0.307
	c-0.012,0.256-0.736,0.515-0.736,0.774V400.34c0,0.32,0.731,0.638,0.749,0.955c0.006,0.09,0.374,0.179,0.38,0.269
	c0.019,0.243,0.224,0.485,0.254,0.725c0.01,0.079,0.108,0.157,0.12,0.235c0.046,0.312,0.143,0.623,0.207,0.93
	c0.005,0.021,0.033,0.04,0.038,0.061c0.062,0.288,0.144,0.573,0.221,0.854c0.02,0.068,0.044,0.137,0.065,0.203
	c0.076,0.262,0.16,0.522,0.25,0.778c0.013,0.04,0.027,0.077,0.042,0.115c0.108,0.306,0.227,0.605,0.356,0.902
	c0.005,0.01,0.01,0.022,0.015,0.034c0.122,0.276,0.251,0.55,0.388,0.818c0.021,0.043,0.043,0.086,0.067,0.13
	c0.143,0.276,0.293,0.547,0.452,0.814L256,297.275z"/>
<path style="fill:#378F7C;" d="M95.604,408.163c0.166,0.275,0.341,0.545,0.523,0.811c0.007,0.01,0.015,0.021,0.023,0.031
	c0.165,0.238,0.337,0.473,0.515,0.7c0.03,0.038,0.06,0.078,0.092,0.116c0.178,0.224,0.361,0.444,0.551,0.658
	c0.012,0.014,0.023,0.025,0.034,0.039c0.211,0.234,0.43,0.465,0.655,0.687c0.008,0.01,0.019,0.017,0.027,0.026
	c0.205,0.2,0.415,0.394,0.63,0.584c0.045,0.038,0.088,0.076,0.133,0.114c0.2,0.172,0.405,0.339,0.613,0.5
	c0.032,0.025,0.063,0.052,0.095,0.075c0.245,0.189,0.497,0.368,0.753,0.54c0.017,0.012,0.033,0.022,0.048,0.032
	c0.231,0.152,0.466,0.3,0.705,0.44c0.063,0.038,0.127,0.073,0.19,0.11c0.21,0.121,0.421,0.234,0.638,0.343
	c0.057,0.03,0.112,0.061,0.168,0.087c0.271,0.134,0.546,0.261,0.827,0.379c0.023,0.01,0.046,0.019,0.068,0.028
	c0.251,0.104,0.506,0.203,0.765,0.292c0.08,0.028,0.16,0.055,0.24,0.083c0.217,0.072,0.433,0.138,0.653,0.202
	c0.078,0.022,0.155,0.045,0.235,0.066c0.292,0.078,0.585,0.15,0.883,0.21c0.02,0.005,0.04,0.009,0.062,0.012
	c0.275,0.055,0.555,0.102,0.836,0.142c0.091,0.014,0.183,0.026,0.275,0.035c0.223,0.028,0.446,0.052,0.673,0.068
	c0.09,0.008,0.182,0.201,0.275,0.208c0.308,0.02,0.618,0.217,0.933,0.217h294.554c0.315,0,0.625-0.197,0.933-0.217
	c0.093-0.007,0.185-0.106,0.277-0.115c0.225-0.018,0.448-0.086,0.671-0.115c0.092-0.012,0.184-0.045,0.275-0.059
	c0.28-0.04,0.559-0.098,0.833-0.152c0.021-0.004,0.043-0.012,0.064-0.015c0.298-0.063,0.592-0.138,0.883-0.216
	c0.08-0.021,0.157-0.043,0.235-0.067c0.22-0.062,0.437-0.131,0.652-0.203c0.082-0.028,0.162-0.055,0.243-0.083
	c0.255-0.09,0.508-0.187,0.758-0.29c0.025-0.01,0.05-0.021,0.073-0.03c0.28-0.118,0.555-0.245,0.825-0.378
	c0.058-0.03,0.115-0.061,0.173-0.089c0.213-0.109,0.425-0.222,0.633-0.343c0.065-0.037,0.128-0.073,0.193-0.11
	c0.237-0.14,0.47-0.286,0.698-0.437c0.019-0.012,0.037-0.023,0.055-0.035c0.255-0.172,0.505-0.351,0.75-0.538
	c0.035-0.025,0.066-0.054,0.1-0.078c0.207-0.162,0.41-0.327,0.608-0.497c0.045-0.038,0.091-0.078,0.138-0.12
	c0.211-0.186,0.42-0.377,0.622-0.575c0.01-0.011,0.021-0.021,0.033-0.033c0.224-0.221,0.442-0.448,0.652-0.683
	c0.013-0.016,0.025-0.032,0.04-0.046c0.186-0.211,0.368-0.43,0.543-0.649c0.033-0.042,0.066-0.084,0.098-0.123
	c0.175-0.225,0.345-0.454,0.507-0.688c0.01-0.016,0.021,0.389,0.03,0.374c0.182-0.262,0.355-0.387,0.519-0.387
	c0.001,0,0.001,0,0.001,0L256,297.693L95.604,408.163z"/>
<g>
</g>
<g>
</g>
<g>
</g>
<g>
</g>
<g>
</g>
<g>
</g>
<g>
</g>
<g>
</g>
<g>
</g>
<g>
</g>
<g>
</g>
<g>
</g>
<g>
</g>
<g>
</g>
<g>
</g>
</svg>
