<?xml version="1.0" encoding="iso-8859-1"?>
<!-- Generator: Adobe Illustrator 19.0.0, SVG Export Plug-In . SVG Version: 6.00 Build 0)  -->
<svg version="1.1" id="Layer_1" xmlns="http://www.w3.org/2000/svg" xmlns:xlink="http://www.w3.org/1999/xlink" x="0px" y="0px"
	 viewBox="0 0 512 512" style="enable-background:new 0 0 512 512;" xml:space="preserve">
<circle style="fill:#E05B49;" cx="256" cy="256" r="256"/>
<path style="fill:#FFFFFF;" d="M146.552,464.927c20.54-20.54,41.076-41.077,61.616-61.617
	c10.612-10.611,21.224-21.223,31.837-31.836c5.938-5.938,10.73-12.332,13.758-20.285c6.318-16.599,1.428-36.357-11.001-48.785
	c-10.773-10.773-21.549-21.547-32.321-32.32c-3.872-3.873-8.269-7.37-13.229-9.729c-9.5-4.514-19.063-5.47-29.379-4.133
	c-10.139,1.313-19.211,7.222-26.288,14.298c-24.067,24.067-48.132,48.13-72.196,72.198c-8.172,8.169-16.34,16.339-24.512,24.509
	c-11.592,11.594-15.702,27.68-12.799,43.587c2.062,11.293,9.323,19.887,17.137,27.704c9.297,9.296,18.59,18.589,27.883,27.885
	c7.141,7.136,16.359,12.561,26.49,13.872c15.207,1.973,29.807-2.121,40.943-12.954C145.28,466.552,145.816,465.663,146.552,464.927z
	 M171.68,287.231c-0.811,0.361-1.38,0.613-1.765,0.783C170.495,287.736,171.095,287.491,171.68,287.231z M65.705,410.853
	c-0.04-0.05-0.077-0.101-0.12-0.145C64.831,409.89,63.185,407.436,65.705,410.853z M113.158,449.597
	c-0.193,0.005-0.429,0.014-0.727,0.03c-0.771,0.038-2.99-0.124-3.719-0.139c-0.944-0.202-1.882-0.446-2.808-0.719
	c-0.197-0.057-0.453-0.142-0.714-0.233c-0.293-0.147-0.587-0.295-0.88-0.443c-0.746-0.378-1.463-0.819-2.177-1.258
	c-0.578-0.357-0.827-0.645-1.01-0.732c-4.794-4.094-9.057-9.007-13.491-13.443c-6.318-6.318-12.639-12.639-18.959-18.958
	c-0.563-0.563-1.127-1.125-1.689-1.688c-0.36-0.362-0.738-0.705-1.057-1.107c-0.57-0.822-1.113-1.65-1.61-2.513
	c-0.3-0.516-0.582-1.03-0.837-1.568c-0.463-1.323-0.797-2.681-1.065-4.056c-0.06-0.801-0.065-1.597-0.065-2.397
	c-0.002-0.33,0.01-0.654,0.026-0.985c0.06-0.533,0.137-1.153,0.214-1.526c0.159-0.757,0.871-2.807,1.09-3.547
	c0.456-0.887,0.953-1.755,1.477-2.602c0.601-0.976,2.55-3.442-0.577,0.574c0.534-0.683,1.063-1.373,1.647-2.01
	c0.227-0.245,0.411-0.538,0.649-0.776c0.767-0.766,1.537-1.535,2.304-2.301c4.077-4.079,8.153-8.157,12.233-12.232
	c13.653-13.658,27.31-27.315,40.967-40.969c12.109-12.108,24.22-24.221,36.333-36.331c2.144-2.147,4.29-4.294,6.437-6.438
	c0.822-0.823,1.748-1.531,2.645-2.268c-4.255,3.505,0.308,0.061,1.63-0.655c0.052-0.03,0.09-0.07,0.14-0.095
	c0.396-0.155,1.049-0.426,1.472-0.564c0.783-0.25,1.587-0.436,2.387-0.625c0.277-0.067,0.71-0.137,1.145-0.203
	c1.259-0.067,2.522-0.044,3.779,0.02c0.576,0.113,1.149,0.238,1.723,0.373c0.771,0.186,1.525,0.424,2.277,0.665
	c1.55,0.771,3.036,1.686,4.463,2.676c-4.333-3.004-0.243-0.027,0.953,1.171c0.797,0.794,1.594,1.589,2.391,2.386
	c2.953,2.955,5.906,5.906,8.857,8.858c6.454,6.453,12.907,12.907,19.362,19.36c0.661,0.667,1.327,1.329,1.99,1.99
	c0.09,0.09,0.18,0.182,0.27,0.272c0.616,0.618,1.208,1.246,1.78,1.901c0.007,0.01-0.037,0.064-0.03,0.073
	c0.003,0.003-0.02,0.029-0.017,0.036c0.508,0.775,0.955,1.59,1.382,2.412c0.075,0.366,0.998,2.819,1.208,3.716
	c0.057,0.235,0.097,0.474,0.144,0.709c0.038,0.342,0.073,0.715,0.089,0.979c0.041,0.817,0.021,1.636,0.001,2.452
	c-0.007,0.252-0.013,0.467-0.013,0.645c-0.254,1.389-0.629,2.751-1.057,4.096c-0.273,0.559-0.565,1.113-0.86,1.659
	c-0.186,0.346-0.387,0.677-0.59,1.005c-0.091,0.103-0.147,0.291-0.299,0.476c-0.561,0.684-1.235,1.276-1.861,1.903
	c-0.69,0.689-1.377,1.378-2.067,2.066c-24.491,24.49-48.982,48.983-73.477,73.476c-7.596,7.598-15.193,15.196-22.793,22.793
	c-0.563,0.565-1.132,1.108-1.59,1.738c-1.084,0.71-2.247,1.297-3.406,1.868c-0.732,0.246-1.49,0.432-2.237,0.632
	C114.358,449.38,113.751,449.483,113.158,449.597z"/>
<path style="fill:#FFFFFF;" d="M371.048,240.43c20.54-20.54,41.077-41.078,61.615-61.616c10.611-10.614,21.225-21.224,31.838-31.837
	c5.94-5.939,10.599-12.201,13.627-20.152c6.316-16.599,1.294-36.222-11.135-48.652c-10.775-10.773-21.549-21.546-32.321-32.321
	c-3.872-3.87-8.137-7.502-13.097-9.86c-9.498-4.514-18.997-5.535-29.312-4.201c-10.138,1.313-19.145,7.156-26.221,14.233
	c-24.067,24.066-48.132,48.132-72.197,72.196c-8.17,8.17-16.34,16.34-24.51,24.51c-11.594,11.594-15.834,27.812-12.934,43.721
	c2.061,11.294,9.19,20.019,17.007,27.835c9.294,9.297,18.587,18.591,27.882,27.884c7.139,7.137,16.491,12.43,26.625,13.743
	c15.203,1.967,29.87-2.189,41.007-13.024C369.71,242.122,370.316,241.167,371.048,240.43z M396.179,62.735
	c-0.81,0.362-1.381,0.612-1.767,0.783C394.991,63.239,395.593,62.995,396.179,62.735z M290.202,186.355
	c-0.041-0.048-0.077-0.098-0.121-0.142C289.33,185.392,287.682,182.942,290.202,186.355z M337.655,225.099
	c-0.193,0.006-0.427,0.015-0.726,0.031c-0.771,0.04-2.991-0.123-3.72-0.139c-0.945-0.201-1.882-0.444-2.809-0.717
	c-0.195-0.057-0.453-0.144-0.711-0.236c-0.296-0.145-0.589-0.29-0.881-0.441c-0.748-0.379-1.465-0.82-2.178-1.26
	c-0.577-0.354-0.96-0.514-1.142-0.597c-4.796-4.094-9.192-8.877-13.625-13.311c-6.32-6.318-12.641-12.638-18.96-18.96
	c-0.562-0.559-1.125-1.125-1.689-1.686c-0.362-0.361-0.605-0.84-0.925-1.241c-0.57-0.818-1.047-1.717-1.545-2.577
	c-0.299-0.517-0.547-1.065-0.803-1.604c-0.461-1.324-0.779-2.697-1.048-4.07c-0.059-0.799-0.059-1.606-0.059-2.405
	c0-0.331,0.017-0.661,0.034-0.99c0.06-0.534,0.138-1.154,0.216-1.528c0.157-0.758,0.872-2.81,1.091-3.546
	c0.456-0.889,0.953-1.756,1.477-2.604c0.6-0.976,2.55-3.443-0.575,0.573c0.531-0.684,1.062-1.373,1.647-2.009
	c0.227-0.248,0.41-0.54,0.648-0.776c0.769-0.769,1.536-1.536,2.304-2.306c4.08-4.076,8.156-8.156,12.233-12.232
	c13.655-13.655,27.312-27.312,40.967-40.967c12.11-12.11,24.222-24.222,36.334-36.333c2.143-2.146,4.289-4.292,6.437-6.436
	c0.819-0.823,1.748-1.528,2.646-2.267c-4.257,3.504,0.307,0.062,1.63-0.655c0.05-0.029,0.088-0.068,0.141-0.095
	c0.393-0.155,1.046-0.427,1.471-0.565c0.782-0.25,1.587-0.437,2.386-0.623c0.276-0.066,0.71-0.137,1.145-0.203
	c1.259-0.064,2.521-0.045,3.778,0.019c0.577,0.114,1.15,0.241,1.724,0.375c0.77,0.183,1.523,0.423,2.276,0.668
	c1.549,0.768,2.906,1.814,4.33,2.804c-4.332-3.005-0.373,0.106,0.823,1.305c0.795,0.793,1.59,1.594,2.387,2.387
	c2.953,2.955,5.907,5.906,8.86,8.861c6.453,6.454,12.906,12.907,19.359,19.36c0.664,0.662,1.327,1.325,1.99,1.991
	c0.09,0.089,0.18,0.177,0.271,0.271c0.615,0.615,1.342,1.11,1.912,1.767c0.007,0.01,0.029-0.005,0.037,0.004
	c0.003,0.006,0.016-0.001,0.018,0.003c0.509,0.776,0.972,1.576,1.396,2.396c0.075,0.366,1.009,2.812,1.219,3.707
	c0.055,0.234,0.099,0.472,0.146,0.706c0.039,0.34,0.077,0.709,0.088,0.977c0.044,0.817,0.025,1.634,0.004,2.449
	c-0.007,0.256-0.012,0.47-0.012,0.647c-0.253,1.386-0.628,2.75-1.057,4.092c-0.273,0.562-0.564,1.115-0.859,1.663
	c-0.188,0.342-0.386,0.677-0.591,1.002c-0.09,0.104-0.147,0.292-0.296,0.477c-0.565,0.684-1.237,1.275-1.863,1.902
	c-0.689,0.689-1.377,1.378-2.067,2.066c-24.489,24.491-48.983,48.984-73.475,73.478c-7.599,7.597-15.195,15.193-22.795,22.791
	c-0.564,0.564-1.13,1.109-1.591,1.739c-1.081,0.709-2.246,1.297-3.406,1.867c-0.73,0.246-1.49,0.435-2.236,0.633
	C338.855,224.885,338.248,224.986,337.655,225.099z"/>
<path style="fill:#F0F0F0;" d="M144.828,422.195c-7.6,7.598-15.124,15.196-22.724,22.793c-0.566,0.565-1.097,1.108-1.555,1.738
	c-1.082,0.71-2.23,1.297-3.391,1.868c-0.729,0.246-1.479,0.432-2.227,0.632c-0.583,0.153-1.186,0.257-1.78,0.37
	c-0.191,0.005-0.422,0.014-0.723,0.03c-0.771,0.038-2.989-0.124-3.716-0.139c-0.947-0.202-1.884-0.446-2.812-0.719
	c-0.195-0.057-0.45-0.142-0.711-0.233c-0.293-0.147-0.587-0.295-0.88-0.443c-0.746-0.378-1.463-0.819-2.177-1.258
	c-0.578-0.357-0.827-0.645-1.01-0.732c-4.794-4.094-9.057-9.007-13.491-13.443c-6.318-6.318-12.639-12.639-18.959-18.958
	c-0.563-0.563-1.127-1.125-1.689-1.688c-0.36-0.362-0.738-0.705-1.057-1.107c-0.57-0.822-1.113-1.65-1.61-2.513
	c-0.3-0.516-0.582-1.03-0.837-1.568c-0.463-1.323-0.797-2.681-1.065-4.056c-0.06-0.801-0.065-1.597-0.065-2.397
	c-0.002-0.33,0.01-0.654,0.026-0.985c0.06-0.533,0.137-1.153,0.214-1.526c0.159-0.757,0.871-2.807,1.09-3.547
	c0.456-0.887,0.953-1.755,1.477-2.602c0.149-0.245,0.382-0.578,0.601-0.884c-0.404,0.476-0.794,0.967-1.178,1.458
	c2.349-3.018,1.834-2.375,1.178-1.458c0.156-0.185,0.307-0.372,0.47-0.552c0.227-0.245,0.411-0.538,0.649-0.776
	c0.767-0.766,1.537-1.535,2.304-2.301c4.077-4.079,8.153-8.157,12.233-12.232c13.653-13.658,27.168-27.315,40.823-40.969
	c7.78-7.778,17.196-15.557,23.196-23.339v-43.965c0,1.219-2.71,2.503-4.033,3.826c-24.065,24.067-48.061,48.13-72.123,72.198
	c-8.174,8.169-16.307,16.339-24.477,24.509c-11.594,11.594-15.684,27.68-12.78,43.587c2.06,11.293,9.328,19.887,17.146,27.704
	c9.295,9.296,18.592,18.589,27.887,27.885c7.139,7.136,16.361,12.561,26.495,13.872c15.203,1.973,29.661-2.121,40.798-12.954
	c0.467-0.454,1.088-0.947,1.088-1.431v-44.444C145.435,421.695,145.078,421.945,144.828,422.195z M65.585,410.708
	c-0.754-0.818-2.4-3.272,0.12,0.145C65.665,410.804,65.628,410.753,65.585,410.708z"/>
<path style="fill:#FFFFFF;" d="M184.944,289.333c0.634,0.391,1.258,0.797,1.867,1.221
	C185.052,289.33,184.682,289.099,184.944,289.333z"/>
<path style="fill:#FFFFFF;" d="M289.08,167.79c0.382-0.493,0.772-0.981,1.175-1.458C290.911,165.415,291.427,164.774,289.08,167.79z
	"/>
<path style="fill:#F0F0F0;" d="M269.335,142.73c-11.594,11.594-15.834,27.812-12.934,43.721c2.061,11.294,9.19,20.019,17.007,27.835
	c9.294,9.297,18.587,18.591,27.882,27.884c7.139,7.137,17.215,12.43,27.348,13.743c10.629,1.373,19.797-0.246,30.797-5.043v-41.69
	c-4,3.772-8.267,7.54-12.037,11.311c-0.566,0.564-1.493,1.109-1.952,1.739c-1.082,0.709-2.429,1.297-3.589,1.867
	c-0.73,0.246-1.581,0.435-2.328,0.633c-0.583,0.155-1.234,0.257-1.828,0.369c-0.193,0.006-0.45,0.015-0.747,0.031
	c-0.773,0.04-3.003-0.123-3.732-0.139c-0.946-0.201-1.89-0.444-2.815-0.717c-0.195-0.057-0.453-0.144-0.714-0.236
	c-0.293-0.145-0.589-0.29-0.881-0.441c-0.75-0.379-1.467-0.82-2.18-1.26c-0.577-0.354-0.96-0.514-1.142-0.597
	c-4.796-4.094-9.192-8.877-13.625-13.311c-6.32-6.318-12.641-12.638-18.96-18.96c-0.562-0.559-1.125-1.125-1.689-1.686
	c-0.362-0.361-0.605-0.84-0.925-1.241c-0.084-0.119-0.16-0.242-0.238-0.363c-0.732-0.812-2.205-2.999-0.142-0.217
	c-0.41-0.65-0.779-1.334-1.164-1.997c-0.299-0.517-0.547-1.065-0.803-1.604c-0.461-1.324-0.779-2.697-1.048-4.07
	c-0.059-0.799-0.059-1.606-0.059-2.405c0-0.331,0.017-0.661,0.034-0.99c0.06-0.534,0.138-1.154,0.216-1.528
	c0.157-0.758,0.872-2.81,1.091-3.546c0.456-0.889,0.953-1.756,1.477-2.604c0.149-0.243,0.381-0.578,0.6-0.885
	c-0.403,0.478-0.793,0.965-1.175,1.458c2.347-3.016,1.831-2.375,1.175-1.458c0.156-0.187,0.307-0.374,0.472-0.551
	c0.227-0.248,0.41-0.54,0.648-0.776c0.769-0.769,1.536-1.536,2.304-2.306c4.08-4.076,8.156-8.156,12.233-12.232
	c13.655-13.655,28.035-27.312,41.691-40.967c3.704-3.703,7.832-7.403,11.832-11.106V54.08c-22,21.382-43.486,42.76-64.865,64.14
	C286.399,126.39,277.505,134.56,269.335,142.73z"/>
<path style="fill:#FFFFFF;" d="M290.202,186.355c-0.103-0.142-0.201-0.268-0.291-0.393c0.047,0.074,0.094,0.143,0.142,0.217
	c0.008,0.012,0.018,0.021,0.027,0.034C290.125,186.257,290.161,186.307,290.202,186.355z"/>
<path style="fill:#FFFFFF;" d="M315.802,173.368c-17.714,17.715-35.427,35.427-53.137,53.139
	c-26.123,26.12-52.243,52.241-78.363,78.365c-3.73,3.728-7.464,7.459-11.193,11.192c-6.039,6.039-6.039,16.116,0,22.156
	c6.04,6.041,16.118,6.041,22.158,0c17.712-17.711,35.425-35.427,53.135-53.138c26.123-26.12,52.243-52.241,78.363-78.362
	c3.732-3.729,7.464-7.461,11.193-11.191c6.04-6.04,6.04-16.12,0-22.16C331.918,167.331,321.842,167.331,315.802,173.368
	L315.802,173.368z"/>
<path style="fill:#F0F0F0;" d="M236.922,296.566c-7.387,7.385-14.772,14.771-22.157,22.154c1.203,1.205,2.407,2.407,3.61,3.61
	c0.661,0.667,1.327,1.329,1.99,1.99c0.09,0.09,0.18,0.182,0.27,0.272c0.616,0.618,1.208,1.246,1.78,1.901
	c0.007,0.01-0.037,0.064-0.03,0.073c0.003,0.003-0.02,0.029-0.017,0.036c0.299,0.456,0.573,0.929,0.838,1.403l22.429-22.428
	c-0.91-1.1-1.863-2.16-2.873-3.174C240.816,300.46,238.868,298.51,236.922,296.566z"/>
<path style="fill:#F0F0F0;" d="M184.944,289.333c-0.263-0.234,0.107-0.003,1.867,1.221
	C186.202,290.13,185.578,289.724,184.944,289.333c0.383,0.342,2.11,1.681,2.82,2.392c0.797,0.794,1.594,1.589,2.391,2.386
	c0.816,0.817,1.633,1.636,2.451,2.455c7.385-7.386,14.771-14.774,22.158-22.159c-1.441-1.442-2.883-2.883-4.324-4.324
	c-1.509-1.508-3.101-2.956-4.77-4.307L183.145,288.3C183.755,288.625,184.355,288.97,184.944,289.333z"/>
<path style="fill:#D6D6D6;" d="M326.632,222.337c-0.577-0.354-0.96-0.514-1.142-0.597c-2.445-2.087-4.787-4.354-7.082-6.663
	c-7.37,7.369-14.738,14.738-22.106,22.106c1.663,1.661,3.326,3.325,4.988,4.986c1.29,1.29,2.654,2.516,4.078,3.673l22.67-22.67
	C327.566,222.902,327.095,222.623,326.632,222.337z"/>
<path style="fill:#D6D6D6;" d="M274.145,215.026c7.387-7.387,14.772-14.771,22.157-22.16c-1.134-1.13-2.264-2.263-3.396-3.397
	c-0.562-0.559-1.125-1.125-1.689-1.686c-0.362-0.361-0.605-0.84-0.925-1.241c-0.084-0.119-0.16-0.242-0.238-0.363
	c-0.732-0.812-2.205-2.999-0.142-0.217c-0.41-0.65-0.779-1.334-1.164-1.997c-0.155-0.27-0.299-0.548-0.436-0.831l-22.608,22.606
	c2.365,3.005,4.988,5.833,7.705,8.546C273.653,214.531,273.899,214.781,274.145,215.026z"/>
<g>
</g>
<g>
</g>
<g>
</g>
<g>
</g>
<g>
</g>
<g>
</g>
<g>
</g>
<g>
</g>
<g>
</g>
<g>
</g>
<g>
</g>
<g>
</g>
<g>
</g>
<g>
</g>
<g>
</g>
</svg>
