<?xml version="1.0" encoding="iso-8859-1"?>
<!-- Generator: Adobe Illustrator 19.0.0, SVG Export Plug-In . SVG Version: 6.00 Build 0)  -->
<svg version="1.1" id="Layer_1" xmlns="http://www.w3.org/2000/svg" xmlns:xlink="http://www.w3.org/1999/xlink" x="0px" y="0px"
	 viewBox="0 0 512 512" style="enable-background:new 0 0 512 512;" xml:space="preserve">
<circle id="background_5_" style="fill:#E27C3E;" cx="256" cy="256" r="256"/>
<path style="fill:#804712;" d="M388,422.587c0,8.512-6.899,15.412-15.41,15.412H140.41c-8.511,0-15.41-6.9-15.41-15.412V95.412
	C125,86.9,131.899,80,140.41,80h232.18c8.511,0,15.41,6.9,15.41,15.412V422.587z"/>
<path style="fill:#945215;" d="M129.072,84.999h254.855c-2.816-3.066-6.846-5-11.338-5H140.41
	C135.919,79.999,131.889,81.933,129.072,84.999z"/>
<path style="fill:#5C330D;" d="M376,422.493c0,2.839-2.092,5.506-4.929,5.506H140.705c-2.837,0-5.705-2.668-5.705-5.506V94.85
	c0-2.838,2.868-4.851,5.705-4.851h230.366c2.837,0,4.929,2.012,4.929,4.851L376,422.493L376,422.493z"/>
<path style="fill:#804712;" d="M370,422.467c0,0.055,0.331,0.533,0.204,0.533H140.665c-0.127,0-0.665-0.478-0.665-0.533V94.664
	c0-0.054,0.538,0.335,0.665,0.335h229.539c0.127,0-0.204-0.39-0.204-0.335L370,422.467L370,422.467z"/>
<path style="fill:#703E0F;" d="M331.022,118.999H181.186c-14.248,0-25.186,11.919-25.186,26.167V366.06
	c0,14.247,10.939,25.94,25.186,25.94h112.758L357,328.984V145.166C357,130.918,345.271,118.999,331.022,118.999z"/>
<path style="fill:#D3D6D6;" d="M331.022,108.999H181.186c-14.248,0-25.186,10.617-25.186,24.866v220.894
	C156,369.006,166.939,380,181.186,380h112.758L357,317.682V133.865C357,119.617,345.271,108.999,331.022,108.999z"/>
<polygon style="fill:#C1C4C4;" points="294.458,329.048 231.585,380 294.458,380 322.402,317.265 "/>
<path style="fill:#5D5D5D;" d="M202,163.999c0,0,48.624,0,73.16,0c13.887,0,26.84,0,40.84,0c5,0,5-7,0-7c-24,0-48.251,0-72.786,0
	c-13.889,0-28.214,0-41.214,0C197,156.999,197,163.999,202,163.999C202,163.999,197,163.999,202,163.999z"/>
<path style="fill:#5D5D5D;" d="M202,190.999c0,0,48.624,0,73.16,0c13.887,0,26.84,0,40.84,0c5,0,5-7,0-7c-24,0-48.251,0-72.786,0
	c-13.889,0-28.214,0-41.214,0C197,183.999,197,190.999,202,190.999C202,190.999,197,190.999,202,190.999z"/>
<path style="fill:#5D5D5D;" d="M202,217.999c0,0,48.624,0,73.16,0c13.887,0,26.84,0,40.84,0c5,0,5-7,0-7c-24,0-48.251,0-72.786,0
	c-13.889,0-28.214,0-41.214,0C197,210.999,197,217.999,202,217.999C202,217.999,197,217.999,202,217.999z"/>
<path style="fill:#5D5D5D;" d="M202,244.999c0,0,48.624,0,73.16,0c13.887,0,26.84,0,40.84,0c5,0,5-5,0-5c-24,0-48.251,0-72.786,0
	c-13.889,0-28.214,0-41.214,0C197,239.999,197,244.999,202,244.999C202,244.999,197,244.999,202,244.999z"/>
<path style="fill:#5D5D5D;" d="M202,273c0,0,48.624,0,73.16,0c13.887,0,26.84,0,40.84,0c5,0,5-5,0-5c-24,0-48.251,0-72.786,0
	c-13.889,0-28.214,0-41.214,0C197,268,197,273,202,273C202,273,197,273,202,273z"/>
<path style="fill:#5D5D5D;" d="M202,300c0,0,48.624,0,73.16,0c13.887,0,26.84,0,40.84,0c5,0,5-5,0-5c-24,0-48.251,0-72.786,0
	c-13.889,0-28.214,0-41.214,0C197,295,197,300,202,300C202,300,197,300,202,300z"/>
<path style="fill:#D8A202;" d="M296.069,94.999h-8.287c0.041,0,0.068-0.543,0.068-0.89c0-5.087-4.624-9.11-10.275-9.11h-43.664
	c-5.651,0-10.274,4.023-10.274,9.11c0,0.346,0.026,0.89,0.067,0.89h-8.287c-5.65,0-10.417,4.849-10.417,10.499v5.137
	c0,5.652,4.767,10.365,10.417,10.365h80.652c5.65,0,9.931-4.713,9.931-10.365v-5.137C306,99.849,301.72,94.999,296.069,94.999z"/>
<path style="fill:#BA8C02;" d="M205,108.999v1.635c0,5.652,4.767,10.365,10.417,10.365h80.652c5.65,0,9.931-4.713,9.931-10.365
	v-1.635H205z"/>
<path style="fill:#FBFFFF;" d="M306.022,318c-6.405,0-11.022,4.354-11.022,10.76v51.229L357.252,318H306.022z"/>
<g>
</g>
<g>
</g>
<g>
</g>
<g>
</g>
<g>
</g>
<g>
</g>
<g>
</g>
<g>
</g>
<g>
</g>
<g>
</g>
<g>
</g>
<g>
</g>
<g>
</g>
<g>
</g>
<g>
</g>
</svg>
