<?xml version="1.0" encoding="iso-8859-1"?>
<!-- Generator: Adobe Illustrator 19.0.0, SVG Export Plug-In . SVG Version: 6.00 Build 0)  -->
<svg version="1.1" id="Layer_1" xmlns="http://www.w3.org/2000/svg" xmlns:xlink="http://www.w3.org/1999/xlink" x="0px" y="0px"
	 viewBox="0 0 512 512" style="enable-background:new 0 0 512 512;" xml:space="preserve">
<circle id="background_16_" style="fill:#334D5C;" cx="256" cy="256" r="256"/>
<path style="fill:#D4B142;" d="M275.435,80.746c0,8.724-6.991,16.254-15.713,16.254h-12.787c-8.721,0-15.5-7.53-15.5-16.254V45.774
	c0-8.724,6.779-15.774,15.5-15.774h12.787c8.722,0,15.713,7.05,15.713,15.774V80.746z"/>
<path style="fill:#C7A73E;" d="M270.435,80.735c0,5.669-4.596,10.265-10.266,10.265H246.7c-5.67,0-10.266-4.596-10.266-10.265
	v-34.47C236.435,40.596,241.03,36,246.7,36h13.469c5.67,0,10.266,4.596,10.266,10.265V80.735z"/>
<path style="fill:#EDC64A;" d="M268.435,80.104c0,4.361-3.535,7.896-7.897,7.896h-13.207c-4.361,0-7.896-3.535-7.896-7.896V44.896
	c0-4.361,3.535-7.896,7.896-7.896h13.207c4.361,0,7.897,3.535,7.897,7.896V80.104z"/>
<path style="opacity:0.3;fill:#5D5D5D;enable-background:new    ;" d="M266.435,80.94c-1.477-1.682-3-3.364-5-5.046v-1.106
	c0-4.344-3.156-7.896-7.5-7.896s-7.5,3.553-7.5,7.896v0.206c-3,4.568-7.844,9.138-11.854,13.706
	c1.574,2.189,3.602,3.957,6.064,5.114c1.958-2.23,3.79-4.458,5.79-6.691v6.616c0,0.529,0.23,0.889,0.33,1.389
	c0.211,0.01,0.594-0.127,0.807-0.127h13.426c0.481,0,0.388,0.131,0.86,0.088c0.094-0.49-0.423-0.834-0.423-1.35v-5.616
	c2,1.906,3.934,3.805,5.613,5.712c2.48-1.157,4.61-2.933,6.193-5.136C270.975,86.113,268.705,83.526,266.435,80.94z"/>
<path style="fill:#ECF0F0;" d="M427.435,167.969c0-4.344-2.581-7.969-6.925-7.969H88.059c-4.344,0-8.624,3.625-8.624,7.969v232.953
	c0,4.344,4.28,8.078,8.624,8.078h257.376v-12h3.813l15.413-55.173l50.773-12.003V327h12V167.969H427.435z"/>
<circle style="fill:#ABADAD;" cx="166.631" cy="167.573" r="5.527"/>
<circle style="fill:#ABADAD;" cx="341.938" cy="167.573" r="5.527"/>
<path style="fill:#6DCCED;" d="M404.835,328.488c4.23-0.986,7.6-5.35,7.6-9.691V183.762c0-4.344-3.375-6.762-7.718-6.762H103.852
	c-4.343,0-7.417,2.418-7.417,6.762v201.367c0,4.343,3.074,8.871,7.417,8.871h234.533c4.344,0,8.886-3.9,10.094-8.073l11.4-39.604
	c1.209-4.172,5.612-8.515,9.842-9.503L404.835,328.488z"/>
<path style="fill:#EFDC9E;" d="M384.384,223.245c-13.172,0-23.889-10.716-23.889-23.887c0-13.172,10.717-23.889,23.889-23.889
	s23.887,10.717,23.887,23.889C408.27,212.529,397.556,223.245,384.384,223.245z"/>
<circle style="fill:#EFC84A;" cx="384.382" cy="199.358" r="19.939"/>
<path style="fill:#D8DBDB;" d="M265.712,218h9.151h14.295h11.271h15.436c0.072,0,0.113-1.21,0.113-1.796
	c0-7.438-6.029-13.504-13.468-13.504c-3.46,0-6.615,1.289-9,3.433c-2.917-2.168-6.528-3.46-10.441-3.46
	c-5.087,0-9.663,2.165-12.863,5.625c-2.157-1.747-4.903-2.724-7.895-2.724c-6.866,0-12.442,5.425-12.552,12.425h15.953V218z"/>
<path style="fill:#ECF0F0;" d="M258.245,202.659c-3.217,0-6.247,0.783-8.92,2.164c-4.759-7.889-13.408-13.164-23.292-13.164
	c-10.08,0-18.872,5.492-23.565,13.642c-2.076-0.692-4.295-0.8-6.602-0.8c-10.636,0-19.41,8.5-20.724,18.5h23.955h17.492h22.18
	h14.201h24.752c0.002,0,0.007-0.48,0.007-0.586C277.728,211.654,269.007,202.659,258.245,202.659z"/>
<path style="opacity:0.5;fill:#EFE9D2;enable-background:new    ;" d="M384.384,254.832c10.229,0,19.815-2.795,28.051-7.643v-63.427
	c0-4.344-3.375-6.762-7.718-6.762h-70.891c-3.149,7-4.918,14.453-4.918,22.575C328.908,230.164,353.794,254.832,384.384,254.832z"/>
<path style="fill:#45B39C;" d="M346.413,275.799c0.494-0.105,0.993-0.193,1.495-0.256
	C347.406,275.606,346.908,275.691,346.413,275.799z"/>
<polygon style="fill:#45B39C;" points="338.974,279.517 274.413,336.673 274.413,336.673 "/>
<path style="fill:#45B39C;" d="M343.452,276.729c0.404-0.169,0.811-0.329,1.226-0.464
	C344.263,276.402,343.857,276.56,343.452,276.729z"/>
<path style="fill:#45B39C;" d="M338.974,279.517c0.417-0.371,0.852-0.712,1.299-1.033
	C339.825,278.805,339.391,279.148,338.974,279.517z"/>
<path style="fill:#45B39C;" d="M342.039,277.403c0.36-0.192,0.724-0.383,1.096-0.547
	C342.763,277.022,342.399,277.21,342.039,277.403z"/>
<path style="fill:#45B39C;" d="M340.643,278.245c0.335-0.226,0.671-0.449,1.02-0.647
	C341.314,277.796,340.978,278.02,340.643,278.245z"/>
<path style="fill:#45B39C;" d="M344.907,276.197c0.451-0.14,0.906-0.269,1.367-0.37C345.813,275.93,345.358,276.055,344.907,276.197
	z"/>
<path style="fill:#45B39C;" d="M347.963,275.537c1.071-0.129,2.154-0.159,3.23-0.09l5.276,20.447l-22.176,23.69l30.548,19.688
	c1.516-1.208,3.209-2.117,4.878-2.507l35.115-8.277c1.312-0.306,2.541-0.938,3.613-1.793l-46.482-46.48
	C358.245,276.493,352.981,274.926,347.963,275.537z"/>
<path style="fill:#3C9C88;" d="M347.908,275.543c0.019-0.002,0.036-0.003,0.055-0.006
	C347.944,275.54,347.927,275.541,347.908,275.543z"/>
<path style="fill:#3C9C88;" d="M346.274,275.827c0.046-0.012,0.092-0.018,0.139-0.028
	C346.366,275.809,346.32,275.816,346.274,275.827z"/>
<path style="fill:#3C9C88;" d="M343.135,276.856c0.104-0.046,0.212-0.083,0.317-0.127
	C343.347,276.774,343.239,276.81,343.135,276.856z"/>
<path style="fill:#3C9C88;" d="M341.663,277.598c0.123-0.07,0.251-0.127,0.376-0.194
	C341.914,277.471,341.786,277.527,341.663,277.598z"/>
<path style="fill:#3C9C88;" d="M344.678,276.265c0.076-0.026,0.153-0.044,0.229-0.068
	C344.831,276.221,344.754,276.239,344.678,276.265z"/>
<path style="fill:#3C9C88;" d="M340.272,278.484c0.12-0.086,0.248-0.156,0.37-0.239C340.52,278.328,340.393,278.398,340.272,278.484
	z"/>
<path style="fill:#3C9C88;" d="M356.47,295.895l-5.276-20.447c-1.076-0.069-2.159-0.039-3.23,0.09
	c-0.018,0.003-0.036,0.004-0.055,0.006c-0.502,0.062-1.001,0.151-1.495,0.256c-0.047,0.01-0.093,0.017-0.139,0.028
	c-0.461,0.102-0.916,0.23-1.367,0.37c-0.076,0.023-0.153,0.042-0.229,0.068c-0.415,0.135-0.821,0.295-1.226,0.464
	c-0.105,0.044-0.213,0.081-0.317,0.127c-0.372,0.164-0.735,0.354-1.096,0.547c-0.125,0.067-0.253,0.124-0.376,0.194
	c-0.35,0.198-0.685,0.422-1.02,0.647c-0.122,0.083-0.25,0.153-0.37,0.239c-0.447,0.32-0.882,0.662-1.299,1.033l-64.561,57.156
	l33.373,33.373c16.707-6.086,36.871-13.562,50.603-18.673l1.488-5.158c0.732-2.525,2.638-5.09,4.964-6.942l-30.548-19.688
	L356.47,295.895z"/>
<path style="fill:#51D1B6;" d="M274.413,336.673l-100.029-100.03L274.413,336.673z"/>
<path style="fill:#51D1B6;" d="M173.049,235.461c0.091,0.072,0.182,0.146,0.272,0.222
	C173.23,235.607,173.14,235.533,173.049,235.461z"/>
<path style="fill:#51D1B6;" d="M167.438,232.615c0.203,0.056,0.406,0.119,0.607,0.182
	C167.844,232.734,167.642,232.672,167.438,232.615z"/>
<path style="fill:#51D1B6;" d="M170.379,233.748c0.13,0.066,0.259,0.135,0.387,0.204
	C170.638,233.883,170.509,233.814,170.379,233.748z"/>
<path style="fill:#51D1B6;" d="M168.825,233.068c0.158,0.059,0.316,0.115,0.473,0.179
	C169.142,233.184,168.983,233.129,168.825,233.068z"/>
<path style="fill:#51D1B6;" d="M165.234,232.18c-0.941-0.12-1.89-0.154-2.836-0.105C163.345,232.026,164.294,232.061,165.234,232.18
	z"/>
<path style="fill:#51D1B6;" d="M171.806,234.564c0.043,0.028,0.087,0.051,0.13,0.08
	C171.893,234.615,171.849,234.592,171.806,234.564z"/>
<path style="fill:#51D1B6;" d="M165.611,232.234c0.397,0.059,0.792,0.135,1.185,0.225
	C166.403,232.369,166.009,232.294,165.611,232.234z"/>
<polygon style="fill:#51D1B6;" points="274.413,336.673 274.413,336.673 274.413,336.673 "/>
<path style="fill:#51D1B6;" d="M159.427,232.512c0.45-0.109,0.905-0.197,1.362-0.268
	C160.332,232.314,159.878,232.402,159.427,232.512z"/>
<path style="fill:#51D1B6;" d="M160.789,232.244c0.032-0.005,0.064-0.014,0.097-0.018
	C160.854,232.23,160.821,232.239,160.789,232.244z"/>
<path style="fill:#51D1B6;" d="M159.408,232.516l-0.001,0.002c0.007-0.002,0.014-0.004,0.02-0.006
	C159.421,232.514,159.414,232.514,159.408,232.516z"/>
<path style="fill:#51D1B6;" d="M160.886,232.227c0.49-0.073,0.981-0.123,1.475-0.15
	C161.867,232.102,161.376,232.154,160.886,232.227z"/>
<path style="fill:#51D1B6;" d="M319.472,381.948l-69.809,8.027l-7.926-4.239l-14.302-7.622V378.1l-73.934-39.6l53.089-29.176
	l-60.122-33.927l12.926-42.878c-2.701,0.659-5.254,2.025-7.353,4.124l-55.607,55.613v92.873c0,4.343,3.074,8.871,7.417,8.871
	h106.298h121.157L319.472,381.948z"/>
<rect x="291.1" y="329.761" style="fill:#51D1B6;" width="0" height="47.197"/>
<path style="fill:#45B39C;" d="M166.796,232.459c0.215,0.05,0.43,0.098,0.643,0.156
	C167.226,232.558,167.011,232.508,166.796,232.459z"/>
<path style="fill:#45B39C;" d="M165.234,232.18c0.126,0.016,0.251,0.035,0.377,0.055C165.485,232.215,165.36,232.195,165.234,232.18
	z"/>
<path style="fill:#45B39C;" d="M168.046,232.797c0.262,0.084,0.521,0.175,0.779,0.271
	C168.567,232.972,168.308,232.881,168.046,232.797z"/>
<path style="fill:#45B39C;" d="M171.936,234.645c0.381,0.252,0.751,0.527,1.113,0.816
	C172.686,235.172,172.316,234.895,171.936,234.645z"/>
<path style="fill:#45B39C;" d="M162.36,232.076c0.013,0,0.025-0.001,0.038-0.001C162.386,232.075,162.373,232.076,162.36,232.076z"
	/>
<path style="fill:#45B39C;" d="M170.766,233.952c0.352,0.19,0.7,0.392,1.04,0.612C171.466,234.345,171.118,234.143,170.766,233.952z
	"/>
<path style="fill:#45B39C;" d="M173.321,235.683c0.363,0.304,0.721,0.618,1.062,0.96
	C174.042,236.301,173.685,235.986,173.321,235.683z"/>
<path style="fill:#45B39C;" d="M169.298,233.248c0.365,0.153,0.726,0.321,1.081,0.5
	C170.023,233.568,169.664,233.399,169.298,233.248z"/>
<rect x="251.024" y="326.141" style="fill:#45B39C;" width="0" height="62.476"/>
<path style="fill:#45B39C;" d="M307.786,370.046l-33.373-33.373l-46.778,41.414l14.202,7.595l7.826,4.186l69.809-7.919L331.307,394
	h7.078c4.344,0,8.886-3.9,10.094-8.073l9.911-34.445C344.657,356.592,324.493,363.96,307.786,370.046z"/>
<path style="fill:#45B39C;" d="M173.321,235.683c-0.091-0.075-0.182-0.149-0.272-0.222c-0.362-0.289-0.732-0.564-1.113-0.816
	c-0.043-0.029-0.087-0.052-0.13-0.08c-0.34-0.221-0.688-0.422-1.04-0.612c-0.128-0.069-0.257-0.139-0.387-0.204
	c-0.355-0.179-0.716-0.347-1.081-0.5c-0.156-0.064-0.314-0.12-0.473-0.179c-0.258-0.097-0.518-0.188-0.779-0.271
	c-0.201-0.063-0.404-0.126-0.607-0.182c-0.213-0.058-0.428-0.106-0.643-0.156c-0.393-0.09-0.787-0.166-1.185-0.225
	c-0.126-0.02-0.251-0.039-0.377-0.055c-0.94-0.118-1.89-0.154-2.836-0.105c-0.013,0-0.025,0.001-0.038,0.001
	c-0.992,0.055-1.982,0.201-2.952,0.439l-12.915,42.879l60.146,33.926L153.6,338.494l74.034,39.593l46.778-41.413l-100.029-100.03
	C174.042,236.301,173.685,235.986,173.321,235.683z"/>
<path style="opacity:0.3;fill:#5D5D5D;enable-background:new    ;" d="M346.282,409h-76.599l82.125-82.126
	C351.809,326.874,346.282,404,346.282,409z"/>
<path style="fill:#A5A7A7;" d="M354.179,327c-4.344,0-8.744,3.246-8.744,7.59v74.229L428.407,327H354.179z"/>
<path style="fill:#E27C3E;" d="M344.729,163.992c-25.908-29.527-51.816-59.054-77.725-88.579c-3.31-3.771-6.62-7.543-9.93-11.315
	c-1.354-1.543-4.229-1.543-5.582,0c-25.91,29.525-51.818,59.053-77.727,88.579c-3.31,3.771-6.618,7.543-9.928,11.315
	c-3.344,3.81,2.218,9.418,5.583,5.583c25.908-29.525,51.818-58.868,77.727-88.395c2.339-2.664,4.675-5.537,7.013-8.111
	c25.018,28.243,50.039,56.863,75.058,85.377c3.31,3.771,6.618,7.449,9.928,11.221C342.512,173.502,348.073,167.802,344.729,163.992z
	"/>
<path style="fill:#FFDC69;" d="M261.435,79.5c0,4.142-3.357,7.5-7.5,7.5l0,0c-4.143,0-7.5-3.358-7.5-7.5v-19
	c0-4.142,3.357-7.5,7.5-7.5l0,0c4.143,0,7.5,3.358,7.5,7.5V79.5z"/>
<g>
</g>
<g>
</g>
<g>
</g>
<g>
</g>
<g>
</g>
<g>
</g>
<g>
</g>
<g>
</g>
<g>
</g>
<g>
</g>
<g>
</g>
<g>
</g>
<g>
</g>
<g>
</g>
<g>
</g>
</svg>
