<?xml version="1.0" encoding="iso-8859-1"?>
<!-- Generator: Adobe Illustrator 19.0.0, SVG Export Plug-In . SVG Version: 6.00 Build 0)  -->
<svg version="1.1" id="Layer_1" xmlns="http://www.w3.org/2000/svg" xmlns:xlink="http://www.w3.org/1999/xlink" x="0px" y="0px"
	 viewBox="0 0 512 512" style="enable-background:new 0 0 512 512;" xml:space="preserve">
<circle id="background_19_" style="fill:#ECF0F0;" cx="256" cy="256" r="256"/>
<path style="fill:#C7A63E;" d="M255,112.566c-45,0.049-85.752,18.147-114.93,47.373C110.998,189.059,92,229.225,92,273.6
	c0,0.13,0,0.259,0,0.387c0,14.737,3.242,29.009,6.939,42.572l155.434-42.37l-0.01-0.189H255V112.566z"/>
<path style="fill:#307D6D;" d="M416.36,252L99,294.392v22.151l-0.061,0.016C98.958,316.628,99,316.7,99,316.771v0.223l0.195,0.012
	c18.812,68.209,81.319,118.32,155.489,118.405c0.065,0,0.158,0.003,0.222,0.003c44.526,0,84.861-18.031,114.066-47.188
	c29.267-29.218,47.383-69.613,47.383-114.238C416.355,273.887,416.36,252,416.36,252z"/>
<polygon style="fill:#45B39C;" points="254.75,251.387 256.167,251 254.75,251 "/>
<polygon style="fill:#45B39C;" points="254.363,251 254.75,251.387 254.75,251.387 254.75,251 "/>
<path style="fill:#21313B;" d="M275.151,228l154.485-42.081c1.693-7.44-0.367-17.98-0.367-17.98
	C375.443,109.602,273,196.759,273,196.759V228H275.151z"/>
<path style="fill:#45B39C;" d="M254.75,251.387L254.75,251.387L254.75,251.387z"/>
<path style="fill:#E05B49;" d="M416.36,252c-0.035-15-2.023-28.807-5.707-42.279L256.167,252H416.36z"/>
<path style="fill:#45B39C;" d="M416.36,252H256.167l-1.417-0.113L99.198,294.209c18.665,68.435,81.219,118.641,155.552,118.725
	c0.064,0,0.125-0.059,0.189-0.059c44.528,0,84.845-18.061,114.05-47.219c29.267-29.22,47.375-69.128,47.375-113.753
	C416.363,251.774,416.36,252,416.36,252z"/>
<path style="fill:#EFC84A;" d="M256,89.965c-45,0.05-85.752,18.146-114.93,47.372C111.998,166.456,93,206.625,93,251
	c0,0.128,0,0.257,0,0.387c0,14.736,2.744,29.007,6.441,42.571l155.932-42.071l-0.01,0.113H256V89.965z"/>
<path style="fill:#334D5C;" d="M275.151,211l154.485-42.622C399.941,59.759,350.08,49.451,273.557,49.451
	c-0.062,0-0.557-0.168-0.557-0.168V211H275.151z"/>
<path style="opacity:0.3;fill:#5D5D5D;enable-background:new    ;" d="M92.519,251c0,0.128-0.005,0.257-0.005,0.387
	c0,14.736,2.986,29.103,6.684,42.665C117.863,362.49,180.417,413,254.75,413c0.064,0,0.125,0,0.189,0
	c22.76,0,44.413-4.815,64.05-13.314l-192.165-246.45C106.012,180.349,92.604,214.2,92.519,251z"/>
<g>
</g>
<g>
</g>
<g>
</g>
<g>
</g>
<g>
</g>
<g>
</g>
<g>
</g>
<g>
</g>
<g>
</g>
<g>
</g>
<g>
</g>
<g>
</g>
<g>
</g>
<g>
</g>
<g>
</g>
</svg>
