<?xml version="1.0" encoding="iso-8859-1"?>
<!-- Generator: Adobe Illustrator 19.0.0, SVG Export Plug-In . SVG Version: 6.00 Build 0)  -->
<svg version="1.1" id="Layer_1" xmlns="http://www.w3.org/2000/svg" xmlns:xlink="http://www.w3.org/1999/xlink" x="0px" y="0px"
	 viewBox="0 0 512 512" style="enable-background:new 0 0 512 512;" xml:space="preserve">
<circle id="background_10_" style="fill:#334D5C;" cx="256" cy="256" r="256"/>
<path style="fill:#EFC84A;" d="M216.028,299.87c4.832-2.418,6.814-8.353,4.395-13.185l-6.375-12.736
	c-2.418-4.832-8.562-7.275-13.643-5.437l-40.744,9.562c-0.902-3.773-2.25-7.502-4.061-11.118
	c-12.749-25.47-43.734-35.782-69.204-23.032c-25.47,12.75-35.782,43.733-23.032,69.204c12.752,25.47,43.739,35.778,69.209,23.028
	C133.105,335.889,216.028,299.87,216.028,299.87z M76.104,306.75c-9.23-18.435-1.767-40.86,16.67-50.089
	c18.433-9.228,40.86-1.765,50.089,16.671c1.564,3.125,2.638,6.366,3.271,9.638c3.098,16.023-4.633,32.787-19.942,40.452
	c-1.088,0.543-2.19,1.024-3.304,1.455C105.155,331.725,84.786,324.099,76.104,306.75z"/>
<path style="fill:#EFC84A;" d="M216.028,299.87c4.832-2.418,6.814-8.353,4.395-13.185l-6.375-12.736
	c-2.418-4.832-8.562-7.275-13.643-5.437l-40.744,9.562c-0.902-3.773-2.25-7.502-4.061-11.118
	c-12.749-25.47-43.734-35.782-69.204-23.032c-25.47,12.75-35.782,43.733-23.032,69.204c12.752,25.47,43.739,35.778,69.209,23.028
	C133.105,335.889,216.028,299.87,216.028,299.87z M76.104,306.75c-9.23-18.435-1.767-40.86,16.67-50.089
	c18.433-9.228,40.86-1.765,50.089,16.671c1.564,3.125,2.638,6.366,3.271,9.638c3.098,16.023-4.633,32.787-19.942,40.452
	c-1.088,0.543-2.19,1.024-3.304,1.455C105.155,331.725,84.786,324.099,76.104,306.75z"/>
<path style="fill:#D6B342;" d="M215.161,297.095c-2.842,1.285-6.305-0.236-7.734-3.399l-6.076-13.442
	c-1.431-3.163-0.285-6.767,2.558-8.053l0,0c2.842-1.285,6.306,0.236,7.735,3.399l6.076,13.442
	C219.149,292.205,218.005,295.81,215.161,297.095L215.161,297.095z"/>
<path style="fill:#D6D9D9;" d="M215.989,294.33c-2.514,0.986-5.135-0.345-5.819-2.958l-2.931-11.159
	c-0.686-2.613,0.817-5.538,3.342-6.501L448.399,183c2.525-0.964,5.023,0.417,5.556,3.065c0,0,3.253,16.23-20.872,32.773
	l-148.939,77.733c-2.394,1.25-6.021,0.82-8.057-0.955l-15.971-13.911c-2.038-1.775-5.762-2.42-8.276-1.434L215.989,294.33z"/>
<path style="fill:#D6B342;" d="M141.696,261.552c-15.486-17.464-42.198-19.065-59.661-3.578
	c-17.464,15.488-19.066,42.199-3.577,59.663c15.486,17.462,42.199,19.065,59.662,3.576
	C155.583,305.725,157.185,279.014,141.696,261.552z M126.191,323.422c-1.088,0.543-2.19,1.024-3.304,1.455
	c-17.732,6.848-38.102-0.778-46.784-18.127c-9.23-18.435-1.767-40.86,16.67-50.089c18.433-9.228,40.86-1.765,50.089,16.671
	c1.564,3.125,2.638,6.366,3.271,9.638C149.231,298.993,141.501,315.757,126.191,323.422z"/>
<polygon style="fill:#FBFFFF;" points="301.913,238.875 263.702,253.45 256.401,256.235 273.01,264.915 280.798,261.945 
	319.01,247.37 "/>
<polygon style="fill:#FBFFFF;" points="308.86,236.225 325.958,244.718 361.273,231.248 344.177,222.755 "/>
<path style="fill:#FBFFFF;" d="M452.465,196.465c0.009-0.003,0.015-0.005,0.023-0.008c2.297-6.24,1.467-10.392,1.467-10.392
	c-0.532-2.648-3.03-4.029-5.556-3.065l-77.592,29.597l17.098,8.493L452.465,196.465z"/>
<polygon style="fill:#FBFFFF;" points="352.86,219.441 369.958,227.935 379.222,224.403 362.124,215.908 "/>
<path style="fill:#D6B342;" d="M197.581,303.184c-1.435-2.922-4.967-4.127-7.888-2.692l-1.321,0.648
	c-2.924,1.436-4.129,4.967-2.693,7.891l1.629,3.318c4.339-1.887,8.469-3.681,12.178-5.29L197.581,303.184z"/>
<path style="fill:#D6B342;" d="M173.382,308.502l-1.324,0.649c-2.921,1.436-4.126,4.967-2.691,7.889l1.256,2.559
	c4.064-1.767,8.174-3.552,12.176-5.292l-1.527-3.113C179.835,308.272,176.304,307.066,173.382,308.502z"/>
<path style="fill:#EFC84A;" d="M175.847,379.429c-12.75,25.47-2.441,56.456,23.028,69.208c25.47,12.75,56.453,2.439,69.203-23.032
	c12.75-25.47,2.439-56.455-23.032-69.203c-3.615-1.812-7.344-3.158-11.117-4.062l9.561-40.743c1.839-5.08-0.605-11.225-5.436-13.644
	l-12.737-6.375c-4.831-2.42-10.767-0.436-13.185,4.396C212.132,295.974,176.113,378.897,175.847,379.429z M187.125,389.113
	c0.431-1.113,0.911-2.215,1.455-3.304c7.665-15.31,24.429-23.04,40.452-19.941c3.271,0.634,6.513,1.707,9.638,3.271
	c18.435,9.229,25.898,31.655,16.67,50.089c-9.227,18.437-31.653,25.899-50.089,16.67
	C187.903,427.215,180.276,406.847,187.125,389.113z"/>
<path style="fill:#FFD54F;" d="M175.847,379.429c-12.75,25.47-2.441,56.456,23.028,69.208c25.47,12.75,56.453,2.439,69.203-23.032
	c12.75-25.47,2.439-56.455-23.032-69.203c-3.615-1.812-7.344-3.158-11.117-4.062l9.561-40.743c1.839-5.08-0.605-11.225-5.436-13.644
	l-12.737-6.375c-4.831-2.42-10.767-0.436-13.185,4.396C212.132,295.974,176.113,378.897,175.847,379.429z M187.125,389.113
	c0.431-1.113,0.911-2.215,1.455-3.304c7.665-15.31,24.429-23.04,40.452-19.941c3.271,0.634,6.513,1.707,9.638,3.271
	c18.435,9.229,25.898,31.655,16.67,50.089c-9.227,18.437-31.653,25.899-50.089,16.67
	C187.903,427.215,180.276,406.847,187.125,389.113z"/>
<path style="fill:#EFC84A;" d="M214.907,296.84c-1.285,2.842,0.236,6.305,3.399,7.735l13.441,6.076
	c3.163,1.431,6.769,0.285,8.054-2.559l0,0c1.285-2.841-0.236-6.305-3.4-7.734l-13.441-6.077
	C219.796,292.852,216.191,293.997,214.907,296.84L214.907,296.84z"/>
<path style="fill:#EEF2F2;" d="M217.671,296.012c-0.986,2.515,0.346,5.135,2.959,5.82l11.158,2.93
	c2.613,0.687,5.539-0.816,6.502-3.342l90.711-237.818c0.964-2.525-0.416-5.024-3.065-5.555c0,0-16.23-3.254-32.773,20.871
	l-77.732,148.94c-1.25,2.394-0.82,6.02,0.954,8.057l13.911,15.97c1.775,2.038,2.421,5.762,1.434,8.276L217.671,296.012z"/>
<path style="fill:#EFC84A;" d="M190.788,373.882c-15.488,17.463-13.885,44.175,3.576,59.661
	c17.464,15.488,44.176,13.887,59.664-3.576c15.486-17.464,13.885-44.175-3.578-59.662
	C232.988,354.816,206.276,356.418,190.788,373.882z M229.032,365.868c3.271,0.634,6.513,1.707,9.638,3.271
	c18.435,9.229,25.898,31.655,16.67,50.089c-9.227,18.437-31.653,25.899-50.089,16.67c-17.348-8.684-24.975-29.052-18.126-46.785
	c0.431-1.113,0.911-2.215,1.455-3.304C196.245,370.5,213.009,362.77,229.032,365.868z"/>
<polygon style="fill:#FBFFFF;" points="273.126,210.088 258.552,248.3 255.767,255.6 247.087,238.991 250.057,231.203 
	264.632,192.991 "/>
<polygon style="fill:#FBFFFF;" points="275.776,203.142 267.283,186.043 280.753,150.729 289.247,167.825 "/>
<path style="fill:#FBFFFF;" d="M315.536,59.536c0.004-0.008,0.006-0.015,0.009-0.022c6.24-2.297,10.392-1.467,10.392-1.467
	c2.648,0.531,4.028,3.03,3.065,5.555l-29.596,77.592l-8.494-17.097L315.536,59.536z"/>
<polygon style="fill:#FBFFFF;" points="292.56,159.142 284.066,142.043 287.599,132.78 296.093,149.878 "/>
<path style="fill:#EFC84A;" d="M208.818,314.42c2.921,1.435,4.126,4.967,2.691,7.889l-0.647,1.321
	c-1.436,2.924-4.967,4.129-7.891,2.693l-3.318-1.63c1.887-4.339,3.68-8.469,5.29-12.177L208.818,314.42z"/>
<path style="fill:#EFC84A;" d="M203.5,338.62l-0.649,1.323c-1.436,2.922-4.967,4.127-7.889,2.691l-2.559-1.255
	c1.767-4.065,3.552-8.175,5.291-12.177l3.113,1.528C203.73,332.167,204.935,335.698,203.5,338.62z"/>
<circle style="fill:#EEF2F2;" cx="235.422" cy="277.273" r="19.201"/>
<circle style="fill:#FBFFFF;" cx="235.422" cy="277.273" r="12.227"/>
<path style="fill:#DADEDE;" d="M240.726,279.036c0,0-0.728-0.727-1.737-1.736c0.565-0.564,1.14-1.14,1.737-1.736
	c2.082-2.084-1.391-5.557-3.475-3.474c0,0-0.719,0.72-1.736,1.737c-0.661-0.66-1.268-1.268-1.736-1.737
	c-2.432-2.43-5.903,1.042-3.473,3.474c0.557,0.557,1.138,1.139,1.736,1.736c-0.631,0.63-1.229,1.228-1.736,1.736
	c-2.431,2.432,1.041,5.904,3.473,3.474c0.597-0.597,1.172-1.172,1.736-1.736c0.575,0.575,1.156,1.156,1.736,1.736
	C239.335,284.593,242.808,281.12,240.726,279.036z"/>
<g>
</g>
<g>
</g>
<g>
</g>
<g>
</g>
<g>
</g>
<g>
</g>
<g>
</g>
<g>
</g>
<g>
</g>
<g>
</g>
<g>
</g>
<g>
</g>
<g>
</g>
<g>
</g>
<g>
</g>
</svg>
