<?xml version="1.0" encoding="iso-8859-1"?>
<!-- Generator: Adobe Illustrator 19.0.0, SVG Export Plug-In . SVG Version: 6.00 Build 0)  -->
<svg version="1.1" id="Layer_1" xmlns="http://www.w3.org/2000/svg" xmlns:xlink="http://www.w3.org/1999/xlink" x="0px" y="0px"
	 viewBox="0 0 512 512" style="enable-background:new 0 0 512 512;" xml:space="preserve">
<circle id="background_6_" style="fill:#E05B49;" cx="256" cy="256" r="256"/>
<path style="fill:#CED1D1;" d="M438.862,276.763v-41.526l-30.737-17.792c-3.8-14.481-9.616-28.146-17.132-40.678l9.439-35.388
	l-29.364-29.363l-35.963,9.593c-12.126-7.055-25.279-12.535-39.188-16.155l-18.705-32.315h-41.527l-18.637,32.197
	c-14.08,3.62-27.391,9.15-39.652,16.287l-36.016-9.606l-29.365,29.364l9.464,35.474c-7.429,12.403-13.19,25.917-16.983,40.232
	l-31.357,18.152v41.526l30.531,17.673c3.723,15.398,9.716,29.907,17.604,43.157l-8.81,33.027l29.363,29.365l32.471-8.662
	c13.643,8.365,28.658,14.7,44.634,18.597l16.753,28.942h41.527l16.815-29.048c15.802-3.902,30.664-10.193,44.176-18.477l32.42,8.648
	l29.363-29.365l-8.789-32.938c7.977-13.376,14.021-28.035,17.746-43.598L438.862,276.763z M256.262,370.15
	c-62.271,0-112.753-50.48-112.753-112.754c0-62.272,50.482-112.753,112.753-112.753s112.753,50.481,112.753,112.753
	C369.015,319.67,318.532,370.15,256.262,370.15z"/>
<path style="fill:#FBFFFF;" d="M408.125,217.445c-3.8-14.481-9.616-28.146-17.132-40.678l9.439-35.388l-29.364-29.363l-35.963,9.593
	c-12.126-7.055-25.279-12.535-39.188-16.155l-18.705-32.315h-41.527l-18.637,32.197c-14.08,3.62-27.391,9.15-39.652,16.287
	l-36.016-9.606l-29.365,29.364l9.464,35.474c-7.429,12.403-13.19,25.917-16.983,40.232l-31.357,18.152v41.526l30.531,17.673
	c3.723,15.398,9.716,29.907,17.604,43.157l-8.81,33.027l29.363,29.365l32.471-8.662c13.643,8.365,28.658,14.7,44.634,18.597
	l16.753,28.942h41.527l16.815-29.048c15.802-3.902,30.664-10.193,44.176-18.477l32.42,8.648l29.363-29.365l-8.789-32.938
	c7.977-13.376,14.021-28.035,17.746-43.598l29.92-17.321v-41.526L408.125,217.445z M427.503,270.213l-28.471,16.483l-1.137,4.742
	c-3.405,14.227-8.94,27.828-16.453,40.427l-2.454,4.116l8.335,31.239l-20.104,20.102l-30.8-8.215l-4.155,2.547
	c-12.718,7.798-26.498,13.562-40.961,17.133l-4.688,1.158l-15.953,27.559h-28.43l-15.9-27.47l-4.711-1.148
	c-14.619-3.566-28.542-9.366-41.385-17.245l-4.156-2.548l-30.853,8.23l-20.104-20.102l8.356-31.324l-2.449-4.113
	c-7.428-12.477-12.92-25.94-16.324-40.018l-1.143-4.724l-29.068-16.829v-28.427l29.768-17.233l1.209-4.558
	c3.471-13.102,8.77-25.652,15.748-37.307l2.469-4.12l-9.012-33.789l20.102-20.102l34.25,9.135l4.078-2.375
	c11.538-6.717,23.908-11.798,36.769-15.104l4.613-1.187l17.743-30.652h28.43l17.802,30.753l4.592,1.195
	c12.714,3.309,24.938,8.35,36.335,14.982l4.08,2.373l34.197-9.122l20.102,20.102l-8.99,33.707l2.473,4.122
	c7.065,11.78,12.41,24.472,15.887,37.72l1.2,4.577l29.163,16.882L427.503,270.213L427.503,270.213z"/>
<path style="fill:#ECF0F0;" d="M242.233,427.503l-15.9-27.47l-4.711-1.148c-14.619-3.566-28.542-9.366-41.385-17.245l-4.156-2.548
	l-30.853,8.23l-20.104-20.102l8.356-31.324l-2.449-4.113c-7.428-12.477-12.92-25.94-16.324-40.018l-1.143-4.724l-29.068-16.829
	v-28.427l29.768-17.233l1.209-4.558c3.471-13.102,8.77-25.652,15.748-37.307l2.469-4.12l-9.012-33.789l20.102-20.102l34.25,9.135
	l4.078-2.375c11.538-6.717,23.908-11.798,36.769-15.104l4.613-1.187l17.743-30.652h28.43l17.802,30.753l4.592,1.195
	c12.714,3.309,24.938,8.35,36.335,14.982l4.08,2.373l34.197-9.122l20.102,20.102l-8.99,33.707l2.473,4.122
	c7.065,11.78,12.41,24.472,15.887,37.72l1.2,4.577l29.163,16.882v28.427l-28.471,16.483l-1.137,4.742
	c-3.405,14.227-8.94,27.828-16.453,40.427l-2.454,4.116l8.335,31.239L367.22,387.32l-30.8-8.215l-4.155,2.547
	c-12.718,7.798-26.498,13.562-40.961,17.133l-4.688,1.158l-15.953,27.559h-28.43V427.503z M256.262,133.287
	c-68.434,0-124.112,55.675-124.112,124.11s55.678,124.112,124.112,124.112c68.435,0,124.112-55.677,124.112-124.112
	S324.696,133.287,256.262,133.287z"/>
<rect x="237.827" y="137.878" style="fill:#CED1D1;" width="35.209" height="110.171"/>
<rect x="292.705" y="232.902" transform="matrix(0.5 -0.866 0.866 0.5 -94.2509 412.7245)" style="fill:#CED1D1;" width="35.209" height="110.17"/>
<rect x="184.09" y="232.918" transform="matrix(-0.5 -0.866 0.866 -0.5 53.1289 606.6787)" style="fill:#CED1D1;" width="35.209" height="110.17"/>
<path style="fill:#BFC2C2;" d="M204.682,306.612L256,276.985l51.318,29.628c8.26-8.373,14.481-18.755,17.882-30.332l-52.164-30.119
	v-60.235c-5.467-1.328-11.166-2.05-17.036-2.05c-6.274,0-12.366,0.808-18.173,2.322v60.62L186.8,276.282
	C190.2,287.858,196.422,298.238,204.682,306.612z M269.771,248.05l-13.77,23.853l-13.772-23.853L269.771,248.05L269.771,248.05z"/>
<circle style="fill:#ECF0F0;" cx="256" cy="256" r="60.765"/>
<circle style="fill:#FBFFFF;" cx="256" cy="256" r="44.295"/>
<path style="opacity:0.3;fill:#5D5D5D;enable-background:new    ;" d="M256.262,370.15c-35.673,0-67.474-16.572-88.135-42.432
	l46.751-26.992c10.822,9.955,25.258,16.039,41.122,16.039c15.862,0,30.3-6.084,41.122-16.039l34.059,19.664L218.769,207.979
	c-14.316,11.117-23.533,28.492-23.533,48.021c0,4.967,0.609,9.788,1.732,14.408l-10.168,5.874l-36.088,20.833
	c-4.652-12.354-7.203-25.737-7.203-39.719c0-34.173,15.221-64.772,39.232-85.446l-50.647-50.647l-20.078,20.077l9.464,35.474
	c-7.429,12.403-13.19,25.917-16.983,40.232L73.14,235.238v41.526l30.531,17.673c3.723,15.398,9.716,29.907,17.604,43.157
	l-8.81,33.027l29.363,29.365l32.471-8.662c13.643,8.365,28.658,14.7,44.634,18.597l16.753,28.942h41.527l16.815-29.048
	c15.802-3.902,30.664-10.193,44.176-18.477l32.42,8.648l20.076-20.077l-48.98-48.979C321.042,354.939,290.432,370.15,256.262,370.15
	z"/>
<g>
</g>
<g>
</g>
<g>
</g>
<g>
</g>
<g>
</g>
<g>
</g>
<g>
</g>
<g>
</g>
<g>
</g>
<g>
</g>
<g>
</g>
<g>
</g>
<g>
</g>
<g>
</g>
<g>
</g>
</svg>
