<?xml version="1.0" encoding="iso-8859-1"?>
<!-- Generator: Adobe Illustrator 19.0.0, SVG Export Plug-In . SVG Version: 6.00 Build 0)  -->
<svg version="1.1" id="Layer_1" xmlns="http://www.w3.org/2000/svg" xmlns:xlink="http://www.w3.org/1999/xlink" x="0px" y="0px"
	 viewBox="0 0 512 512" style="enable-background:new 0 0 512 512;" xml:space="preserve">
<circle style="fill:#E27C3E;" cx="256" cy="256" r="256"/>
<path style="fill:#D3D6D6;" d="M421.011,108.219c-97.926,4.023-164.982-44.271-164.982-44.271s-67.057,48.294-164.983,44.271
	c0,0-29.542,270.971,164.983,329.993C450.1,379.19,421.011,108.219,421.011,108.219z"/>
<path style="fill:#ECF0F0;" d="M421.011,118.056c-97.926,4.024-164.982-44.269-164.982-44.269s-67.057,48.293-164.983,44.269
	c0,0-29.542,270.971,164.983,329.995C450.1,389.027,421.011,118.056,421.011,118.056z"/>
<path style="fill:#D3D6D6;" d="M251.344,418.598c-63.45-24.01-105.363-78.368-124.571-161.564
	c-8.947-38.736-10.874-75.883-10.914-100.226l-0.02-12.172l12.132-0.998c53.618-4.419,95.876-21.75,121.886-35.512l6.17-3.265
	l6.172,3.265c25.996,13.757,68.238,31.083,121.835,35.507l12.148,1.003l-0.04,12.189c-0.077,24.328-2.051,61.46-11.022,100.188
	c-19.272,83.2-61.135,137.564-124.426,161.582l-4.673,1.774L251.344,418.598z"/>
<path style="fill:#D3D6D6;" d="M251.344,418.598c-63.45-24.01-105.363-78.368-124.571-161.564
	c-8.947-38.736-10.874-75.883-10.914-100.226l-0.02-12.172l12.132-0.998c53.618-4.419,95.876-21.75,121.886-35.512l6.17-3.265
	l6.172,3.265c25.996,13.757,68.238,31.083,121.835,35.507l12.148,1.003l-0.04,12.189c-0.077,24.328-2.051,61.46-11.022,100.188
	c-19.272,83.2-61.135,137.564-124.426,161.582l-4.673,1.774L251.344,418.598z"/>
<path style="opacity:0.3;fill:#5D5D5D;enable-background:new    ;" d="M256.029,448.051c25.621-7.793,47.352-19.283,65.773-33.352
	L90.149,183.045C94.54,267.095,122.474,407.527,256.029,448.051z"/>
<path style="fill:#D6B342;" d="M256.014,406.258c-59.09-22.36-98.217-73.495-116.387-152.191
	c-8.528-36.932-10.531-72.442-10.573-97.28c56.982-4.694,101.637-23.591,126.973-36.998c25.33,13.404,69.965,32.294,126.922,36.996
	c-0.079,24.828-2.13,60.329-10.682,97.25C354.034,332.748,314.951,383.893,256.014,406.258z"/>
<path style="fill:#2A404D;" d="M163.232,271.307l-13.913,16.575c20.783,59.686,56.547,99.399,106.695,118.376l0.028-18.696
	L163.232,271.307z"/>
<path style="fill:#FFD54F;" d="M212.5,218.536l42.988-62.42l0.538-36.327c-25.336,13.407-69.991,32.304-126.973,36.998l23.75,29.249
	L212.5,218.536z"/>
<path style="fill:#406073;" d="M382.855,164.486c0.052-2.656,0.283-5.245,0.289-7.701c-56.945-4.701-102.709-23.584-126.709-36.987
	v63.108l101.893,3.125L382.855,164.486z"/>
<path style="fill:#2A404D;" d="M372.267,254.035c8.552-36.921,10.603-72.422,10.682-97.25l-24.816,29.246l-30.592,60.125
	l34.895,42.048C366.197,277.46,369.478,266.074,372.267,254.035z"/>
<path style="fill:#D6B342;" d="M327.54,246.156l-71.498,141.406c0,0-0.129,18.66-0.028,18.696
	c49.923-18.943,85.596-58.546,106.421-118.055L327.54,246.156z"/>
<path style="fill:#EFC84A;" d="M256.435,156.404c0-0.095-0.57-0.193-0.75-0.288c-20.49,10.84-56.701,26.122-102.783,29.92
	c0.033,20.085,1.605,49.65,8.504,79.517c0.512,2.229,1.003,3.448,1.561,7.448h93.469V156.404H256.435z"/>
<path style="fill:#375363;" d="M347.87,273c0.56-4,1.105-5.234,1.623-7.474c6.916-29.858,8.772-58.993,8.834-79.073
	c-45.656-3.766-80.893-19.229-101.893-30.05V273H347.87z"/>
<path style="fill:#375363;" d="M162.966,273c15.324,59,46.596,98.186,92.709,115.631c0.189-0.07,0.76-0.997,0.76-1.07V273H162.966z"
	/>
<path style="fill:#EFC84A;" d="M347.87,273h-91.435v114.562C302.435,370.005,332.565,332,347.87,273z"/>
<path style="opacity:0.3;fill:#5D5D5D;enable-background:new    ;" d="M130.719,195.909c1.502,17.931,4.212,37.823,8.908,58.158
	c18.17,78.696,57.297,129.831,116.387,152.191c19.838-7.526,37.418-18.333,52.72-32.337L130.719,195.909z"/>
<g>
</g>
<g>
</g>
<g>
</g>
<g>
</g>
<g>
</g>
<g>
</g>
<g>
</g>
<g>
</g>
<g>
</g>
<g>
</g>
<g>
</g>
<g>
</g>
<g>
</g>
<g>
</g>
<g>
</g>
</svg>
