<?xml version="1.0" encoding="iso-8859-1"?>
<!-- Generator: Adobe Illustrator 19.0.0, SVG Export Plug-In . SVG Version: 6.00 Build 0)  -->
<svg version="1.1" id="Layer_1" xmlns="http://www.w3.org/2000/svg" xmlns:xlink="http://www.w3.org/1999/xlink" x="0px" y="0px"
	 viewBox="0 0 512 512" style="enable-background:new 0 0 512 512;" xml:space="preserve">
<circle id="background_11_" style="fill:#45B39C;" cx="256" cy="256" r="256"/>
<path style="fill:#CBC9BD;" d="M136.948,152.705v253.569c0,12.68,9.003,23.054,20.009,23.054h198.089
	c11.005,0,20.009-10.375,20.009-23.054V152.705H136.948z"/>
<path style="fill:#908E86;" d="M187.97,357.133c0,11.094-6.416,20.172-14.256,20.172c-7.842,0-14.257-9.078-14.257-20.172V164.372
	c0-11.095,6.415-20.171,14.257-20.171c7.84,0,14.256,9.077,14.256,20.171V357.133z"/>
<path style="fill:#9E9C93;" d="M173.714,374.803c-6.465,0-11.755-9.076-11.755-20.172V166.874c0-11.096,5.29-20.172,11.755-20.172
	c6.465,0,11.755,9.076,11.755,20.172v187.757C185.469,365.727,180.179,374.803,173.714,374.803z"/>
<path style="fill:#908E86;" d="M352.043,357.133c0,11.094-6.415,20.172-14.257,20.172c-7.842,0-14.256-9.078-14.256-20.172V164.372
	c0-11.095,6.414-20.171,14.256-20.171s14.257,9.077,14.257,20.171V357.133z"/>
<path style="fill:#9E9C93;" d="M337.786,374.803c-6.465,0-11.754-9.076-11.754-20.172V166.874c0-11.096,5.289-20.172,11.754-20.172
	s11.756,9.076,11.756,20.172v187.757C349.542,365.727,344.251,374.803,337.786,374.803z"/>
<path style="fill:#908E86;" d="M270.007,357.133c0,11.094-6.416,20.172-14.257,20.172s-14.257-9.078-14.257-20.172V164.372
	c0-11.095,6.416-20.171,14.257-20.171c7.841,0,14.257,9.077,14.257,20.171V357.133z"/>
<path style="fill:#9E9C93;" d="M255.75,374.803c-6.465,0-11.755-9.076-11.755-20.172V166.874c0-11.096,5.29-20.172,11.755-20.172
	c6.466,0,11.755,9.076,11.755,20.172v187.757C267.505,365.727,262.216,374.803,255.75,374.803z"/>
<path style="fill:#BDBAAB;" d="M277.511,82.672h-36.518c-13.756,0-25.012,11.255-25.012,25.012v20.01
	c0,13.755,11.256,25.012,25.012,25.012h36.518c13.754,0,25.011-11.257,25.011-25.012v-20.01
	C302.522,93.927,291.265,82.672,277.511,82.672z M287.513,127.694c0,5.422-4.581,10.004-10.002,10.004h-36.518
	c-5.423,0-10.004-4.582-10.004-10.004v-20.01c0-5.423,4.581-10.005,10.004-10.005h36.518c5.421,0,10.002,4.582,10.002,10.005
	V127.694z"/>
<path style="fill:#D4D4C1;" d="M277.511,82.672h-36.518c-6.83,0-13.039,2.777-17.566,7.254c4.527,4.478,10.736,7.252,17.566,7.252
	h36.518c6.828,0,13.039-2.774,17.565-7.252C290.55,85.449,284.339,82.672,277.511,82.672z"/>
<path style="fill:#CBC9BD;" d="M386.558,139.302c0-8.585-9.873-15.612-21.941-15.612H147.384c-12.068,0-21.941,7.026-21.941,15.612
	v28.408h261.115L386.558,139.302L386.558,139.302z"/>
<rect x="136.948" y="167.71" style="opacity:0.2;fill:#5D5D5D;enable-background:new    ;" width="238.106" height="18.009"/>
<path style="opacity:0.5;fill:#98968C;enable-background:new    ;" d="M147.384,123.691c-12.068,0-21.941,7.026-21.941,15.612
	v28.408h132.56l-62.028-44.02C195.975,123.691,147.384,123.691,147.384,123.691z"/>
<path style="opacity:0.3;fill:#5D5D5D;enable-background:new    ;" d="M136.948,406.275c0,12.68,9.003,23.054,20.009,23.054h134.56
	L136.948,251.25V406.275z"/>
<rect x="137.164" y="167.743" style="opacity:0.5;fill:#5D5D5D;enable-background:new    ;" width="238.106" height="5.002"/>
<g>
</g>
<g>
</g>
<g>
</g>
<g>
</g>
<g>
</g>
<g>
</g>
<g>
</g>
<g>
</g>
<g>
</g>
<g>
</g>
<g>
</g>
<g>
</g>
<g>
</g>
<g>
</g>
<g>
</g>
</svg>
