<?xml version="1.0" encoding="iso-8859-1"?>
<!-- Generator: Adobe Illustrator 19.0.0, SVG Export Plug-In . SVG Version: 6.00 Build 0)  -->
<svg version="1.1" id="Layer_1" xmlns="http://www.w3.org/2000/svg" xmlns:xlink="http://www.w3.org/1999/xlink" x="0px" y="0px"
	 viewBox="0 0 511.998 511.998" style="enable-background:new 0 0 511.998 511.998;" xml:space="preserve">
<circle style="fill:#EFC84A;" cx="255.999" cy="255.999" r="255.999"/>
<path style="fill:#F76451;" d="M302.555,255.999l0.008-5.613c0.01-5.765-4.723-10.653-10.486-10.661l-19.477-0.069l0.027-18.964
	c0.009-5.763-4.954-10.145-10.716-10.153l-5.912-0.019v45.479H302.555z"/>
<path style="fill:#E05B49;" d="M255.999,210.52l-4.997-0.007c-5.879-0.008-10.824,4.348-10.833,10.11l0.151,18.943l-19.232-0.026
	c-5.874-0.008-11.089,4.919-11.089,10.685v5.774h46V210.52z"/>
<path style="fill:#CC5343;" d="M256.999,255.999v45.368l-6,0.007c-5.763,0.009-10.499-5.122-10.507-10.888l-0.257-19.076
	l-19.593,0.029c-5.766,0.008-10.569-4.48-10.579-10.245l-0.064-5.195H256.999z"/>
<path style="fill:#D45644;" d="M255.999,255.999v45.368l5.778,0.007c5.763,0.009,10.388-5.122,10.396-10.888l0.202-19.076
	l19.565,0.029c5.766,0.008,10.555-4.48,10.565-10.245l0.051-5.196L255.999,255.999L255.999,255.999z"/>
<path style="fill:#B2B5B5;" d="M329.055,184.02c-39.723-39.722-104.124-39.722-143.846,0c-39.722,39.724-39.722,104.125,0,143.844
	c39.722,39.724,104.123,39.724,143.846,0.003C368.775,288.143,368.775,223.744,329.055,184.02z M321.596,320.41
	c-17.219,17.217-40.111,26.699-64.463,26.699s-47.247-9.483-64.465-26.702c-17.219-17.218-26.702-40.113-26.702-64.463
	c0-24.354,9.483-47.247,26.702-64.466c17.218-17.22,40.113-26.701,64.465-26.701s47.244,9.481,64.463,26.701
	C357.141,227.024,357.141,284.861,321.596,320.41z"/>
<path style="fill:#FBFFFF;" d="M343.25,164.577c-21.449-18.439-48.152-29.243-76.385-30.953
	c-27.899-1.689-56.223,6.373-79.194,22.23c-5.06,3.492-0.349,11.857,4.738,8.346c21.378-14.755,46.78-22.09,72.729-21.065
	c26.1,1.03,51.547,11.222,71.326,28.228C341.127,175.367,347.945,168.612,343.25,164.577L343.25,164.577z"/>
<path style="fill:#ECF0F0;" d="M352.637,160.394c-52.758-52.761-138.331-52.792-191.088-0.035
	c-47.869,47.869-52.085,122.943-13.34,175.559l-18.38,18.38l28.495,28.495l18.34-18.343c52.955,39.315,127.986,34.94,175.949-13.025
	C405.373,298.668,405.396,213.15,352.637,160.394z M329.055,327.867c-39.723,39.721-104.124,39.721-143.846-0.003
	c-39.722-39.719-39.722-104.12,0-143.844c39.722-39.722,104.123-39.722,143.846,0C368.775,223.744,368.775,288.143,329.055,327.867z
	"/>
<path style="fill:#ECF0F0;" d="M352.637,160.394c-52.758-52.761-138.331-52.792-191.088-0.035
	c-47.869,47.869-52.085,122.943-13.34,175.559l-18.38,18.38l28.495,28.495l18.34-18.343c52.955,39.315,127.986,34.94,175.949-13.025
	C405.373,298.668,405.396,213.15,352.637,160.394z M329.055,327.867c-39.723,39.721-104.124,39.721-143.846-0.003
	c-39.722-39.719-39.722-104.12,0-143.844c39.722-39.722,104.123-39.722,143.846,0C368.775,223.744,368.775,288.143,329.055,327.867z
	"/>
<path style="opacity:0.2;fill:#ECF0F0;enable-background:new    ;" d="M321.596,320.41c17.721-17.725,26.576-40.984,26.629-64.261
	l-91.365-91.365c-24.25,0.071-47.037,9.54-64.192,26.694c-0.766,0.766-1.499,1.554-2.232,2.342l128.82,128.82
	C320.043,321.907,320.83,321.174,321.596,320.41z"/>
<path style="opacity:0.2;fill:#ECF0F0;enable-background:new    ;" d="M167.955,236.967l108.141,108.142
	c11.965-2.514,23.244-7.414,33.277-14.453l-126.952-126.95C175.379,213.734,170.473,225.006,167.955,236.967z"/>
<path style="fill:#334D5C;" d="M113.547,365.154L59.101,419.6c10.932,13.142,23.16,25.165,36.477,35.889l54.153-54.151
	C159.681,391.388,123.498,355.204,113.547,365.154z"/>
<path style="opacity:0.3;fill:#5D5D5D;enable-background:new    ;" d="M118.539,363.461c-1.766,0.017-3.629,0.528-4.794,1.693
	l-27.746,27.593v55.209c3,2.575,6.215,5.091,9.248,7.533l54.319-54.151C158.235,392.668,132.047,364.088,118.539,363.461z"/>
<path style="fill:#E27C3E;" d="M155.157,409.477c-2.497,2.498-6.546,2.498-9.045,0l-41.158-41.158c-2.499-2.499-2.499-6.547,0-9.044
	l10.403-10.403c2.496-2.498,6.547-2.498,9.045,0l41.158,41.159c2.496,2.498,2.496,6.546,0,9.045L155.157,409.477z"/>
<g>
</g>
<g>
</g>
<g>
</g>
<g>
</g>
<g>
</g>
<g>
</g>
<g>
</g>
<g>
</g>
<g>
</g>
<g>
</g>
<g>
</g>
<g>
</g>
<g>
</g>
<g>
</g>
<g>
</g>
</svg>
