<?xml version="1.0" encoding="iso-8859-1"?>
<!-- Generator: Adobe Illustrator 19.0.0, SVG Export Plug-In . SVG Version: 6.00 Build 0)  -->
<svg version="1.1" id="Layer_1" xmlns="http://www.w3.org/2000/svg" xmlns:xlink="http://www.w3.org/1999/xlink" x="0px" y="0px"
	 viewBox="0 0 512 512" style="enable-background:new 0 0 512 512;" xml:space="preserve">
<circle style="fill:#45B39C;" cx="256" cy="256" r="256"/>
<path style="fill:#EFC84A;" d="M301.435,250.873c0-5.604-4.83-9.873-10.436-9.873h-67.666c-5.607,0-9.898,4.269-9.898,9.873V257h88
	V250.873z"/>
<path style="fill:#D9B543;" d="M213.435,257v4.362c0,5.606,4.291,10.638,9.898,10.638h67.666c5.606,0,10.436-5.031,10.436-10.638
	V257H213.435z"/>
<path style="fill:#B2B5B5;" d="M328.056,184.021c-39.723-39.722-104.124-39.722-143.846,0c-39.722,39.724-39.722,104.125,0,143.844
	c39.722,39.724,104.123,39.724,143.846,0.003C367.776,288.144,367.776,223.745,328.056,184.021z M320.597,320.411
	c-17.219,17.217-40.111,26.699-64.463,26.699c-24.351,0-47.247-9.483-64.465-26.702c-17.219-17.218-26.702-40.113-26.702-64.463
	c0-24.354,9.483-47.247,26.702-64.466c17.218-17.22,40.113-26.701,64.465-26.701s47.244,9.481,64.463,26.701
	C356.142,227.025,356.142,284.862,320.597,320.411z"/>
<path style="fill:#FBFFFF;" d="M342.251,164.578c-21.449-18.439-48.152-29.243-76.385-30.953
	c-27.899-1.689-56.223,6.373-79.194,22.23c-5.06,3.492-0.349,11.857,4.738,8.346c21.378-14.755,46.78-22.09,72.73-21.065
	c26.1,1.03,51.547,11.222,71.326,28.228C340.128,175.368,346.946,168.613,342.251,164.578L342.251,164.578z"/>
<path style="fill:#ECF0F0;" d="M351.638,160.395c-52.758-52.761-138.331-52.792-191.088-0.035
	c-47.869,47.869-52.085,122.943-13.34,175.559l-18.38,18.38l28.495,28.495l18.34-18.343c52.955,39.315,127.986,34.94,175.949-13.025
	C404.374,298.669,404.397,213.151,351.638,160.395z M328.056,327.868c-39.723,39.721-104.124,39.721-143.846-0.003
	c-39.722-39.719-39.722-104.12,0-143.844c39.722-39.722,104.123-39.722,143.846,0C367.776,223.745,367.776,288.144,328.056,327.868z
	"/>
<path style="fill:#ECF0F0;" d="M351.638,160.395c-52.758-52.761-138.331-52.792-191.088-0.035
	c-47.869,47.869-52.085,122.943-13.34,175.559l-18.38,18.38l28.495,28.495l18.34-18.343c52.955,39.315,127.986,34.94,175.949-13.025
	C404.374,298.669,404.397,213.151,351.638,160.395z M328.056,327.868c-39.723,39.721-104.124,39.721-143.846-0.003
	c-39.722-39.719-39.722-104.12,0-143.844c39.722-39.722,104.123-39.722,143.846,0C367.776,223.745,367.776,288.144,328.056,327.868z
	"/>
<path style="opacity:0.2;fill:#ECF0F0;enable-background:new    ;" d="M320.597,320.411c17.721-17.725,26.576-40.984,26.629-64.261
	l-91.365-91.365c-24.25,0.071-47.037,9.54-64.191,26.694c-0.766,0.766-1.499,1.554-2.232,2.342l128.82,128.82
	C319.044,321.908,319.831,321.175,320.597,320.411z"/>
<path style="opacity:0.2;fill:#ECF0F0;enable-background:new    ;" d="M166.956,236.968L275.097,345.11
	c11.965-2.514,23.244-7.414,33.277-14.453l-126.952-126.95C174.38,213.735,169.474,225.007,166.956,236.968z"/>
<path style="fill:#334D5C;" d="M112.548,365.155l-54.446,54.446c10.932,13.142,23.16,25.165,36.477,35.889l54.153-54.151
	C158.682,391.389,122.499,355.205,112.548,365.155z"/>
<path style="opacity:0.3;fill:#5D5D5D;enable-background:new    ;" d="M117.54,363.462c-1.766,0.017-3.412,0.528-4.577,1.693
	l-27.528,27.593v55.209c3,2.575,5.998,5.091,9.03,7.533l54.21-54.151C157.345,392.669,131.048,364.089,117.54,363.462z"/>
<path style="fill:#E27C3E;" d="M154.158,409.478c-2.497,2.498-6.546,2.498-9.045,0l-41.158-41.158c-2.499-2.499-2.499-6.547,0-9.044
	l10.403-10.403c2.496-2.498,6.547-2.498,9.045,0l41.158,41.159c2.496,2.498,2.496,6.546,0,9.045L154.158,409.478z"/>
<g>
</g>
<g>
</g>
<g>
</g>
<g>
</g>
<g>
</g>
<g>
</g>
<g>
</g>
<g>
</g>
<g>
</g>
<g>
</g>
<g>
</g>
<g>
</g>
<g>
</g>
<g>
</g>
<g>
</g>
</svg>
